<svg xmlns="http://www.w3.org/2000/svg" viewBox="0 0 341.22 200.5"><defs><style>.cls-1{isolation:isolate;}.cls-2{fill:#b473ff;}.cls-2,.cls-3{mix-blend-mode:multiply;}.cls-3{fill:#b3ffff;}.cls-4{fill:#fff;}</style></defs><g class="cls-1"><g id="レイヤー_2" data-name="レイヤー 2"><g id="レイヤー_1-2" data-name="レイヤー 1"><circle class="cls-2" cx="100.11" cy="100.11" r="100.11"/><circle class="cls-3" cx="241.11" cy="100.39" r="100.11"/><path d="M76.26,59.29c1.3,0,1.3,1.33,2.6,1.33S80.15,60,81.45,60s1.3.18,2.6.18,1.29-.42,2.59-.42,1.3-.46,2.6-.46,1.3.88,2.6.88,1.3-.45,2.6-.45,1.31.31,2.61.31c1,0,1.9-.1,2.81-.07s1.93-.4,2.84-.33,1.88.51,2.78.62,2,0,2.84.14,1.83.62,2.71.84,1.67,1.31,2.6,1.67a24.64,24.64,0,0,1,2.8,1,25.65,25.65,0,0,1,2.57,1.5c.82.57,2,.72,2.76,1.39s1.41,1.2,2,1.85,1.06,1.52,1.64,2.22.47,1.9,1,2.65,1.75,1,2.21,1.81,1,1.54,1.41,2.37,0,2,.29,2.84,1,1.54,1.3,2.42,0,1.86.21,2.75.6,1.7.77,2.6.85,1.7,1,2.61-.14,1.84-.07,2.76.17,1.79.21,2.72.72,1.8.72,2.72-.7,1.76-.72,2.61-.23,1.74-.29,2.59.35,1.8.25,2.65-.55,1.7-.68,2.54-1,1.57-1.21,2.4.48,2,.23,2.94-.85,1.71-1.16,2.58-1.15,1.54-1.53,2.39-.64,1.73-1.08,2.54-.8,1.57-1.3,2.31-1.12,1.34-1.67,2-1.19,1.26-1.8,1.92-1.16,1.28-1.82,1.89-1,1.6-1.78,2.15-1.79.57-2.58,1-.95,2.2-1.79,2.58-2.09-.07-3,.24-1.63,1.14-2.55,1.37-1.85.49-2.79.64c-.78.13-1.63.18-2.46.27s-1.68-.75-2.52-.69-1.59.08-2.43.1-1.59.25-2.43.25c-1.3,0-1.3-.45-2.6-.45s-1.29,1-2.59,1-1.3-1-2.59-1-1.3,1.19-2.6,1.19-1.3-.13-2.6-.13-1.3-.42-2.6-.42-1.3,0-2.6,0-1.3-.47-2.61-.47-2.48,1.09-3.47.92c-1.29-.21-1.87-1.85-2.7-2.34a5.15,5.15,0,0,1-1.64-1.36c-.49-.62-1.2-1-1.42-1.77a15.77,15.77,0,0,1-.72-3c-.09-1,.17-2,.17-3.13,0-1.37.25-1.37.25-2.75s-.45-1.37-.45-2.74-.77-1.37-.77-2.75,1.1-1.37,1.1-2.74-.71-1.37-.71-2.75.64-1.37.64-2.74-.57-1.38-.57-2.75.07-1.38.07-2.75-.38-1.37-.38-2.75.9-1.37.9-2.75V97.27c0-1.37-.67-1.37-.67-2.75s-.45-1.37-.45-2.75.06-1.37.06-2.75.64-1.37.64-2.75-.4-1.37-.4-2.75.79-1.37.79-2.75S67,79.4,67,78s-.62-1.38-.62-2.75-.53-1.38-.53-2.76S67,71.13,67,69.75c0-1-.92-1.91-.8-2.73a12.94,12.94,0,0,1,.63-2.72c.36-.88,1.82-.94,2.42-1.54s.73-1.89,1.61-2.25a12.56,12.56,0,0,1,2.7-.41C74.4,60,75.3,59.29,76.26,59.29Zm6.68,13.78c-1,1-1.14.94-1.14,2.34s.63,1.41.63,2.81-.18,1.4-.18,2.81.42,1.4.42,2.81.46,1.4.46,2.81-.87,1.4-.87,2.81.45,1.4.45,2.81-.31,1.41-.31,2.81.12,1.41.12,2.81.48,1.41.48,2.82-.35,1.4-.35,2.81.3,1.41.3,2.81-.25,1.41-.25,2.82-.78,1.4-.78,2.81.25,1.41.25,2.81.07,1.41.07,2.82.61,1.41.61,2.81.05,1.41.05,2.82-1.36,1.72-.33,2.68,1.38.76,2.89.76,1.51-.91,3-.91,1.51-.17,3-.17,1.51.85,3,.85c1.15,0,2.19-.45,3.13-.48,1.21,0,2.3.43,3.15.35a18.51,18.51,0,0,0,2.38-.61c.76-.18,1.36-1,2.14-1.22a14.85,14.85,0,0,0,2.34-.69,12.19,12.19,0,0,0,2-1.45c.72-.6.88-1.7,1.49-2.42s1.68-1,2.19-1.83a20.82,20.82,0,0,0,1.48-2.42,28.19,28.19,0,0,0,.59-2.8c.29-.87.86-1.66,1.09-2.61s1.14-1.69,1.3-2.65-.65-2-.55-2.94.47-1.83.52-2.8.59-1.87.59-2.83-.17-1.77-.2-2.6-.17-1.76-.23-2.59,0-1.78-.12-2.6-.16-1.79-.32-2.6-.45-1.76-.68-2.55-1.07-1.53-1.38-2.28-.27-1.89-.69-2.59c-.53-.87-2.28-.83-2.86-1.55s-.61-2.07-1.31-2.7-1.85-.73-2.67-1.21a11.75,11.75,0,0,0-2.58-1.05c-.78-.24-1.54-.5-2.39-.68s-1.45-1.22-2.31-1.35-1.66-.23-2.53-.31-1.68.09-2.54.06-1.67-.51-2.53-.51c-1.32,0-1.32,1-2.63,1s-1.32-1-2.63-1-1.4,1.35-2.7,1.19S83.84,72.11,82.94,73.07Z"/><path d="M273,115c0,.92-1.18,1.77-1.27,2.65s.93,2,.74,2.88a23.61,23.61,0,0,1-1.27,2.51,22.29,22.29,0,0,1-1.1,2.5,25.54,25.54,0,0,1-1.57,2.22,22.1,22.1,0,0,1-1.67,2.27c-.61.72-.73,2-1.43,2.6s-2.08.45-2.86,1a26,26,0,0,1-2.3,1.6c-.8.46-1.2,1.81-2.08,2.21s-2.15-.17-3.06.15-1.58,1.41-2.52,1.65-2,0-2.94.14-1.93-.1-2.9,0-1.85.57-2.83.62-1.9.54-2.88.54-1.95,0-2.88-.08-1.95-.11-2.88-.21-1.86-.69-2.78-.85-1.67-1.27-2.57-1.5-2,.19-2.9-.11-1.69-.89-2.54-1.27-2-.35-2.77-.82a28.22,28.22,0,0,1-2.33-2c-.81-.62-2.21-.61-2.95-1.32s-.41-2.39-1.05-3.19-1.75-1.2-2.3-2.07a24.16,24.16,0,0,1-1.19-2.47,25.67,25.67,0,0,1-1.46-2.36,21.19,21.19,0,0,1-1.18-2.6c-.16-.92.65-2,.65-2.86A7.63,7.63,0,0,1,210,114a7.7,7.7,0,0,1,1.8-2.15,6.72,6.72,0,0,1,2.29-1.67,8.06,8.06,0,0,1,2.81-1,7.24,7.24,0,0,1,2.37.76,6.65,6.65,0,0,1,2.26,1,11.89,11.89,0,0,1,1.63,2.47c.44.74.12,1.93.49,2.89.31.77.86,1.41,1.18,2.1s.79,1.43,1.15,2.09,1.35,1,1.77,1.66a11.18,11.18,0,0,0,2.15,2.26,14.29,14.29,0,0,0,2.51,2c.79.41,1.43,1.53,2.41,1.79s2-.53,3-.42,1.81,0,2.82,0,2.12.82,3.09.71a20.75,20.75,0,0,0,2.94-1c1-.27,2.19-.11,3.08-.53a14.4,14.4,0,0,0,2.57-1.79c.69-.51.9-1.47,1.42-2a10.73,10.73,0,0,0,1.71-1.73,9.28,9.28,0,0,0,.85-2.27c.19-.77-.41-1.57-.41-2.41s.63-1.59.47-2.32a8.62,8.62,0,0,0-.65-2.25c-.36-.69-1.2-1-1.75-1.56a13.72,13.72,0,0,0-1.6-1.81c-.65-.45-1-1.57-1.74-1.94s-1.85.21-2.65-.06-1.49-.84-2.4-1.11-1.49-1-2.39-1.24-1.7-.27-2.59-.49-1.69-.31-2.58-.52-1.92-.63-2.86-.88-1.9-.63-2.83-.91-1.93-.54-2.84-.85-2.09-.14-3-.49-1.63-1.29-2.5-1.7-2.49.45-3.31,0-1.16-1.86-1.92-2.45-1.93-.83-2.61-1.53a22.38,22.38,0,0,1-2-2.25,17.31,17.31,0,0,1-1.54-2.72c-.43-.89.1-2.17-.18-3.16a20.26,20.26,0,0,1-.55-2.91,23,23,0,0,1-.4-3,20.54,20.54,0,0,1,.68-3c.14-1-.7-2.24-.41-3.21s1.66-1.52,2.11-2.44-.1-2.4.49-3.25a19.73,19.73,0,0,1,1.79-2,21.79,21.79,0,0,1,2.2-1.5,21.79,21.79,0,0,1,2.11-1.52,25.82,25.82,0,0,1,2.48-.87c.75-.39,1-1.86,1.87-2.19s2.14.72,3,.45,1.64-.53,2.52-.73,1.61-.86,2.51-1,1.73-.44,2.64-.54,1.78.17,2.69.13,1.76.19,2.67.19,1.72-.45,2.54-.41,1.8-.68,2.62-.6,1.56,1.32,2.38,1.46,1.83-.4,2.63-.2,1.47,1.07,2.25,1.34,1.81,0,2.56.34,1.53.77,2.25,1.15,1.71.51,2.39,1,.82,1.72,1.44,2.25a26.74,26.74,0,0,1,1.95,1.84c.64.68,1.74.93,2.25,1.63s1.46,1.37,1.84,2.15a17.08,17.08,0,0,1,1.17,3.26c.3,1.11-.2,2.39-.2,3.47a8.29,8.29,0,0,1-.14,2.91c-.34.84-1.53,1.22-2.19,2a5.68,5.68,0,0,1-2.19,1.48c-.84.38-1.54,1.16-2.54,1.16-.84,0-1.76.43-2.41.24s-.86-1.61-1.37-2.11-1.88-.57-2.47-1.47c-.45-.68-1-1.47-1.51-2.36s.19-2.39-.3-3.17-2-1-2.58-1.75a17.16,17.16,0,0,0-1.81-2.24c-.62-.51-1.15-1.35-2-1.7a14.45,14.45,0,0,0-2.52-.66,19.46,19.46,0,0,0-2.54-.56c-.79-.07-1.68.65-2.58.65a23.82,23.82,0,0,0-2.59.14,17.25,17.25,0,0,0-2.5.65,13.36,13.36,0,0,0-2.38.84,11.3,11.3,0,0,0-2,1.46c-.77.55-1.95.42-2.48,1a8.82,8.82,0,0,0-1.73,2.11c-.32.81.72,1.83.72,2.73s-.81,1.53-.61,2.19a7.27,7.27,0,0,0,.76,2.17c.45.59,1.74.41,2.36.92s.5,2,1.22,2.37,1.59.69,2.34,1,1.77.11,2.55.35,1.59.09,2.62.37c.75.21,1.35,1.39,2.29,1.64.78.2,1.8-.2,2.72,0s1.53.83,2.33,1,1.68.19,2.48.41,1.47,1,2.26,1.19,1.71.12,2.49.37,1.52.73,2.3,1,2.09-.61,2.86-.29,1.27,1.46,2,1.82,1.93.11,2.65.53,1.47,1,2.16,1.49,1,2,1.68,2.71a17.82,17.82,0,0,1,1.69,2.4,18.42,18.42,0,0,1,1.77,2.34,15.49,15.49,0,0,1,1.23,2.23,20.19,20.19,0,0,1,.57,2.49,25.49,25.49,0,0,1-.09,2.58C271.5,113.25,273,114.05,273,115Z"/><path class="cls-4" d="M172,117.5l-13.05-13.06a7.8,7.8,0,1,1,11-11l2,2,2-2a7.8,7.8,0,1,1,11,11Z"/></g></g></g></svg>