<svg xmlns="http://www.w3.org/2000/svg" viewBox="0 0 844.5 482.48"><defs><style>.cls-1{isolation:isolate;}.cls-2{fill:#b473ff;}.cls-2,.cls-3{mix-blend-mode:multiply;}.cls-3{fill:#b3ffff;}.cls-4{fill:#fff;}.cls-5,.cls-6{fill:none;stroke-width:3px;}.cls-5{stroke:#fff;}.cls-6{stroke:#000;}</style></defs><g class="cls-1"><g id="レイヤー_2" data-name="レイヤー 2"><g id="レイヤー_1-2" data-name="レイヤー 1"><circle class="cls-2" cx="240.91" cy="240.91" r="240.91"/><circle class="cls-3" cx="603.59" cy="241.57" r="240.91"/><path d="M45,142.28c5.19,0,5.19,1.33,10.39,1.33s5.2-.64,10.39-.64a55.15,55.15,0,0,1,13.87,1.68,25.62,25.62,0,0,1,10.72,5.28,32.59,32.59,0,0,1,7.81,9c1.76,3.28,2.27,7.35,3.09,11.47a58.54,58.54,0,0,1,1.52,11.71,62.11,62.11,0,0,1-1.54,12.94,38.59,38.59,0,0,1-3.71,10.6,33.41,33.41,0,0,1-6.3,8.78A28.17,28.17,0,0,1,84,218.79a31.93,31.93,0,0,1-8.1,2.72,63.94,63.94,0,0,1-9.83.46c-5.19,0-5.19-.78-10.39-.78s-5.2.25-10.39.25c-2.9,0-5-.34-6.45-1.22s-2.93-1.83-3.37-3.42a24.11,24.11,0,0,1-.74-6.32c0-4.81.26-4.81.26-9.62s.81-4.81.81-9.62-.9-4.81-.9-9.62-.17-4.81-.17-9.62.85-4.82.85-9.63-.44-4.81-.44-9.63a9.44,9.44,0,0,1,2.7-7.13A9.71,9.71,0,0,1,45,142.28Zm6.66,13.79c-3.75,3.81-1.13,4.86-1.13,10.2s.64,5.35.64,10.69S51,182.3,51,187.65s.42,5.34.42,10.69-3.78,6.63.22,10.17c4.53,4,5.59.7,11.63.7a48.8,48.8,0,0,0,6.2-.66,18.66,18.66,0,0,0,4.71-.77,12.64,12.64,0,0,0,4.13-2.51c3-2.55,4.68-6.21,6-10.82A44.3,44.3,0,0,0,86.14,182a51.77,51.77,0,0,0-1-8.89c-.57-3.45-1.25-6.23-2.58-8.42-2.35-3.87-4.86-7-8.3-8s-7.66-1.35-12.53-1.35C56.63,153.83,55.36,152.32,51.66,156.07Z"/><path d="M156.45,197.36c-4.78,0-4.78-1-9.56-1s-4.78.48-9.56.48-5.1-1.7-9.61-.12a19.67,19.67,0,0,0,2.22,8.86,13,13,0,0,0,5.32,5.37c2.16,1.29,4.28,2.52,6.9,2.52a16.69,16.69,0,0,0,4.75-1,15.21,15.21,0,0,0,4.29-1.71,29.94,29.94,0,0,0,3.7-2.89c1.15-1,2.39-2.63,4.21-4.35a5.74,5.74,0,0,1,3.51-.81,6,6,0,0,1,3.91,1.1,5.06,5.06,0,0,1,1.34,3.78c0,1.33-1.06,2.68-2.09,4.45a17.68,17.68,0,0,1-4.49,5.14,26.49,26.49,0,0,1-7.82,4.08,33.43,33.43,0,0,1-10.88,2.06,37.9,37.9,0,0,1-12-1.74,25.67,25.67,0,0,1-10.12-6.52c-2.76-2.84-4.24-6.47-5.55-10.37-1.16-3.49-2.4-7.26-2.4-11.6A37.41,37.41,0,0,1,114.38,181c1.29-3.71,3.72-6.57,6.19-9.22a24,24,0,0,1,8.9-6.33c3.62-1.42,7.64-1.73,12-1.73,5.73,0,10.55,1,14.65,3.44s7.47,5.26,9.51,9.09A24.67,24.67,0,0,1,168.5,188c0,3.69-1,6.08-3.14,7.17A19,19,0,0,1,156.45,197.36ZM128,188.07c3.81,2.25,4.16.93,8.59.93s4.44-.48,8.87-.48,5.11,2.36,8.93.11c-.36-5-1.91-8.76-4.25-11.25s-5.31-3.32-9.14-3.32c-3.65,0-6.75.64-9.1,3.16S128.53,183.12,128,188.07Z"/><path d="M228.62,203.87c0,4-1.91,7.24-3.88,10.12a17.41,17.41,0,0,1-8.33,6.83c-3.85,1.48-8.53,2.09-14,2.09-5.26,0-9.85-.5-13.61-2.11s-6.88-3.48-8.67-5.9a12.2,12.2,0,0,1-2.13-7.59A5.73,5.73,0,0,1,179.4,203a6.12,6.12,0,0,1,4.49-1.54,5.2,5.2,0,0,1,3.59,1,11.86,11.86,0,0,1,2.69,3,15.77,15.77,0,0,0,5.11,5.92c2.1,1.29,4.87,1.69,8.49,1.69,2.93,0,5.22-.44,7.1-1.74s3.33-2.64,3.33-4.32a6.62,6.62,0,0,0-3.21-5.82c-2-1.18-5.24-2.27-9.71-3.35-5.05-1.25-9.32-2.14-12.49-3.52a20.86,20.86,0,0,1-7.74-5.51,13,13,0,0,1-2.73-8.55c0-2.94,1.41-5.45,3.16-8.07a17.6,17.6,0,0,1,7.29-6.72,30.23,30.23,0,0,1,12.47-2.48,39,39,0,0,1,10.16,1.82c3,.79,5.64,1.52,7.67,2.85a14.75,14.75,0,0,1,4.29,4.63,8.19,8.19,0,0,1,1.69,4.53c0,1.69-.2,3.23-1.33,4.31s-2.89,1.41-5,1.41a5.86,5.86,0,0,1-3.84-1.26,21.33,21.33,0,0,1-4-3.55c-1.11-1.43-2-2.9-3.51-3.76a12.32,12.32,0,0,0-6.13-1.4,11.59,11.59,0,0,0-6.47,2c-1.75,1.13-2.77,2.32-2.77,4s.3,3.26,1.59,4.25,3.41,1.22,5.59,1.87,5.13,1.66,9,2.6a45.42,45.42,0,0,1,10.93,4.32,17.77,17.77,0,0,1,6.47,5.22C227,199,228.62,201.19,228.62,203.87Z"/><path d="M247.92,157.31c-2,0-3.36-1.82-4.81-3.08s-2.6-2.53-2.6-4.82a6.42,6.42,0,0,1,2.35-5,7.61,7.61,0,0,1,5.06-2.39,8.67,8.67,0,0,1,5.5,1.52c1.47,1.21,1.56,3.53,1.56,5.86s-.35,4.23-1.78,5.5A8.41,8.41,0,0,1,247.92,157.31Zm8,14.45c0,5.29-1.36,5.29-1.36,10.59s.65,5.29.65,10.59-.18,5.3-.18,10.6.43,5.3.43,10.59c0,2.94-.42,5.65-1.81,7.15s-3.7,1.59-5.85,1.59-4.1-.41-5.44-2-1.77-3.92-1.77-6.79c0-5.24-.12-5.24-.12-10.48s-.49-5.24-.49-10.48.35-5.25.35-10.49-.3-5.25-.3-10.49a10,10,0,0,1,2.34-6.74c1.34-1.47,3.29-1.49,5.43-1.49a6.38,6.38,0,0,1,5.12,1.86C254.27,167.29,255.87,169.14,255.87,171.76Z"/><path d="M325,174.17c0,5.33-1.37,5.33-1.37,10.65s.65,5.32.65,10.64-.18,5.33-.18,10.65.43,5.33.43,10.66c0,4.87-.07,9.26-1.11,12.77s-3.52,6.07-5.81,8.36a20.79,20.79,0,0,1-8.79,5.5c-3.71,1.11-8.4,1.36-13.91,1.36a40.54,40.54,0,0,1-13.56-2c-4-1.42-7.43-2.92-9.58-5.16a10.56,10.56,0,0,1-3-7.3,6.48,6.48,0,0,1,1.68-4.76,7.07,7.07,0,0,1,4.77-1.58c2.15,0,3.62,1.56,5.23,3.46.79,1,1.8,1.78,2.64,2.77a14.89,14.89,0,0,0,2.89,2.51c1,.69,2.46.63,3.89,1a20.81,20.81,0,0,0,4.84.45c3.8,0,6.65-.23,8.75-1.29s4.23-2.09,5.07-4,.45-4.21.6-6.37.27-5.25.34-10.05a21.32,21.32,0,0,1-7.73,6.46,20.65,20.65,0,0,1-10.36,2.88,21.69,21.69,0,0,1-12.58-4.22,23.19,23.19,0,0,1-8.49-10.23c-1-2.36-2.35-4.75-2.84-7.49a46.61,46.61,0,0,1-.32-8,37.16,37.16,0,0,1,1.75-11.93c1.2-3.54,2.4-7,4.62-9.43s5.3-3.8,8.2-5a24,24,0,0,1,9.56-1.7c4.15,0,7.91.33,11,1.92s5.71,4.4,8.33,7.8c.87.47.78-1,.78-2,0-2.54-.28-4.62,1-6a6.28,6.28,0,0,1,5-1.81c2.83,0,4.07,1.08,5,2.92S325,170.7,325,174.17Zm-42.49,18.59c0,5.94.09,10.87,2.68,13.91s6.46,4.14,10.58,4.14a13.4,13.4,0,0,0,7-1.8c2.16-1.31,3.62-3.55,5-6.19s1.53-5.71,1.53-9.47c0-6-.45-10.75-3.08-14.08s-6.24-4.6-10.54-4.6-7.58,1.29-10.1,4.47S282.46,186.88,282.46,192.76Z"/><path d="M352.9,171.54c0,.89-1,2.66-.26,2.18,2.58-3.4,5.14-6.3,8.21-7.9a22.5,22.5,0,0,1,10.55-2.25,21.3,21.3,0,0,1,10.45,2.23,16.78,16.78,0,0,1,7.21,7.06c1,1.79,1,4,1.27,6.06a52.56,52.56,0,0,1,.77,7.93c0,4.54-.24,4.54-.24,9.09s.09,4.55.09,9.1.37,4.55.37,9.09A10.08,10.08,0,0,1,389,220.9a7.17,7.17,0,0,1-5.36,2.54,7.29,7.29,0,0,1-5.46-2.57c-1.37-1.54-1.5-3.87-1.5-6.74,0-6.11-.19-6.11-.19-12.22s-.06-6.11-.06-12.21A23.1,23.1,0,0,0,374,178.75c-1.34-2.56-3.74-3.64-7.75-3.64a11.43,11.43,0,0,0-7.06,2.11,13.76,13.76,0,0,0-5.25,6.15c-.71,2.18-.41,6.42-.41,12.39,0,4.6.12,4.6.12,9.19s-.64,4.59-.64,9.18c0,3-.36,5.23-1.74,6.72s-3.19,1.84-5.38,1.84a6.16,6.16,0,0,1-5.06-2.08,9.44,9.44,0,0,1-2.42-6.48c0-5.29.26-5.29.26-10.59s0-5.29,0-10.59-.51-5.3-.51-10.6.52-5.3.52-10.59c0-2.8.69-4.81,1.91-6.18a6.39,6.39,0,0,1,4.91-2.4,7.11,7.11,0,0,1,3.49,1.16c1,.61,1.36,1.79,2,3S352.9,169.79,352.9,171.54Z"/><path d="M528,197.94c0,4.76-2.29,8.79-4.74,12.58s-5.36,7.68-10.08,9.83c-2.5,1.14-5.51,1.5-8.5,2a49,49,0,0,1-8.62.67,47.6,47.6,0,0,1-9.89-1.22,30.83,30.83,0,0,1-9.28-3.43c-3.58-2.11-7.1-4.47-9.34-8s-2.44-7.31-2.44-10.64a6.33,6.33,0,0,1,1.84-4.79c1.34-1.37,2.87-3,4.94-3,1.69,0,2.95,1.47,4.11,2.55s2.9,2.26,3.73,4.38c1,2.5,1.61,4.75,2.78,6.43a13,13,0,0,0,4.67,4.48c2.12,1.09,5,1.28,8.45,1.28a17.84,17.84,0,0,0,11.17-3.65c3-2.2,4.21-4.48,4.21-7.78a7.68,7.68,0,0,0-2.24-6,14.44,14.44,0,0,0-5.79-4c-2.53-.86-5.68-2.69-9.9-3.65-5.66-1.33-10.53-2.18-14.35-4a22.37,22.37,0,0,1-8.83-7.37,18.46,18.46,0,0,1-3.82-11.19A19.56,19.56,0,0,1,470,152.08c2.37-3.36,5.34-6.73,9.82-8.54,2.37-1,5.33-.35,8.13-.8,2.5-.4,5.08-1.25,7.93-1.25a38.71,38.71,0,0,1,12.48,2c3.52,1.2,6.67,2.43,9,4.42s4.52,3.94,5.59,6.12.78,4.64.78,6.71a7.66,7.66,0,0,1-1.62,5.32,6.67,6.67,0,0,1-5.23,2.06,5.87,5.87,0,0,1-4.22-1.28,16.34,16.34,0,0,1-3.55-4.28c-1.43-3-2.77-5.38-4.78-7s-5.09-2.14-9.53-2.14c-4.11,0-7.27.6-9.8,2.41s-4.48,3.75-4.48,6.3a7.39,7.39,0,0,0,1.6,4.25,11.48,11.48,0,0,0,3.67,3c1.5.82,3.25.88,4.79,1.35s4.07,1.09,7.61,2a116.5,116.5,0,0,1,12,3.71c3.6,1.26,6.23,3.49,8.76,5.28s5.13,3.39,6.54,6.13A22.28,22.28,0,0,1,528,197.94Z"/><path d="M592.91,204.76c0,1.82-1.34,3.62-2.43,5.7s-2.12,4.61-4.36,6.5-5.36,3.11-8.76,4.26a36.37,36.37,0,0,1-11.54,1.68A34.62,34.62,0,0,1,554.39,221a24.17,24.17,0,0,1-9.72-6.14C542,212,539.5,209,538.23,205.2c-1.14-3.4-1-7.36-1-11.56a39.49,39.49,0,0,1,.73-8.15c.58-2.78.79-5.66,2-8.06,2.33-4.61,6.28-7.79,10.68-10.31,2.31-1.32,4.67-2.9,7.46-3.53a38.48,38.48,0,0,1,8.25-.51A31.25,31.25,0,0,1,576.74,165a28,28,0,0,1,8.18,4.05,21.54,21.54,0,0,1,5.36,5.46,11.91,11.91,0,0,1,1.8,5.78,6.65,6.65,0,0,1-2.09,4.77,7.26,7.26,0,0,1-5,1.61c-1.21,0-1.86-.88-2.67-1.51a11.45,11.45,0,0,1-3-2.61,23,23,0,0,0-5.52-6.29c-2-1.36-4.59-1.7-7.59-1.7a12.7,12.7,0,0,0-10.6,4.85c-2.65,3.39-3.33,8.11-3.33,14,0,2.76-.65,5.43,0,7.74a17.26,17.26,0,0,0,3.42,5.77,12.78,12.78,0,0,0,4.62,3.83,14.21,14.21,0,0,0,6.07,1,12.74,12.74,0,0,0,7.26-2.3,16.88,16.88,0,0,0,6-5.72,15.55,15.55,0,0,1,2.65-4.09,5.74,5.74,0,0,1,3.95-1.21,5.68,5.68,0,0,1,4.5,2C591.86,201.73,592.91,203.22,592.91,204.76Z"/><path d="M620.25,201.75c0,6.12-.84,6.12-.84,12.25,0,3,0,5.56-1.37,7.05a7.68,7.68,0,0,1-5.7,2,6.91,6.91,0,0,1-5.29-2.33c-1.36-1.5-1.87-3.79-1.87-6.72,0-5.11,0-5.11,0-10.21s-.56-5.1-.56-10.2.74-5.1.74-10.21-.08-5.1-.08-10.21c0-6.58,2.2-10.44,7-10.44a6.16,6.16,0,0,1,5.12,3,10.63,10.63,0,0,1,1.92,6.26,23.09,23.09,0,0,1,5.33-6.44c1.84-1.54,4.37-2,7.45-2a18.74,18.74,0,0,1,9,2c2.9,1.54,4.74,3.65,4.74,6.19a6.6,6.6,0,0,1-2,4.74,6.53,6.53,0,0,1-4.29,1.88,40.17,40.17,0,0,1-3.92-1.34c-2.06-.66-3.85-1.68-5.42-1.68a8.54,8.54,0,0,0-5.32,2.22,11.1,11.1,0,0,0-3.37,5,37.27,37.27,0,0,0-1.17,8C620,193.62,620.25,197.34,620.25,201.75Z"/><path d="M691,214.64c0-.94,1.35-2.39.43-2.21-1.76,2.22-3.21,4.83-5.14,6.34a21.37,21.37,0,0,1-6.62,3.07,26.21,26.21,0,0,1-7.89,1.06,20.19,20.19,0,0,1-9.49-2.39,15.82,15.82,0,0,1-6.49-6,26.21,26.21,0,0,1-3.3-13.39c0-4.84.75-4.84.75-9.68s-.08-4.84-.08-9.69-.75-4.84-.75-9.68a9.35,9.35,0,0,1,2.68-6.47c1.32-1.45,3-2.75,5.13-2.75a7.51,7.51,0,0,1,5.45,2.59c1.36,1.47,1.77,3.73,1.77,6.63,0,5.86.28,5.86.28,11.73s.34,5.87.34,11.74a35.53,35.53,0,0,0,.84,8.46,9.42,9.42,0,0,0,3,5.2,8.18,8.18,0,0,0,5.76,2.2c2.47,0,5.12-.15,7.31-1.62a13.58,13.58,0,0,0,4.52-6.21c.82-2.07,1.43-6.65,1.43-13.67,0-4.46-.39-4.46-.39-8.92s.28-4.46.28-8.91c0-2.9.14-5.44,1.5-6.91s3.52-1.36,5.7-1.36,3.94.24,5.26,1.69,1.85,3.64,1.85,6.58c0,5.31.32,5.31.32,10.62s.35,5.31.35,10.61-.66,5.32-.66,10.63.34,5.31.34,10.62a9.07,9.07,0,0,1-2.14,6.27,6.37,6.37,0,0,1-4.89,2.17A6.9,6.9,0,0,1,693.1,221,9.62,9.62,0,0,1,691,214.64Z"/><path d="M769.28,194.18c0,4.87-1.17,4.87-1.17,9.74s1.22,4.88,1.22,9.75a10.59,10.59,0,0,1-2.69,7.07,7.47,7.47,0,0,1-5.68,2.31,6.88,6.88,0,0,1-5.3-2.54c-1.38-1.54-2-3.76-2-6.84,0-5.84-.8-5.84-.8-11.68s1.05-5.84,1.05-11.68a71.58,71.58,0,0,0-.48-8.63c-.25-2-1.8-3.17-2.91-4.48s-2.26-2.71-4.66-2.71c-4.8,0-7.37,2.16-8.9,5.45a32.66,32.66,0,0,0-2.72,13.91c0,5-.42,5-.42,9.91s.4,5,.4,9.91c0,3.05-.36,5.75-1.74,7.3a8.06,8.06,0,0,1-5.9,2.53,8.23,8.23,0,0,1-5.91-2.51c-1.41-1.56-1.8-4.27-1.8-7.32,0-5.24,1-5.24,1-10.48s-.73-5.24-.73-10.49.27-5.24.27-10.49-.56-5.24-.56-10.49a8.83,8.83,0,0,1,2.26-6.13c1.27-1.43,2.77-3,4.85-3s3.2,1.89,4.54,3.23,2.49,2.71,2.49,5.08c0,.69-.47,1.94.11,1.56,2.55-3.05,5.05-5.67,8-7.11a22.41,22.41,0,0,1,9.78-2.66c3.69,0,6.76,1.64,9.41,3.11a16.23,16.23,0,0,1,6.65,6.2,24.34,24.34,0,0,1,8-6.36,20.29,20.29,0,0,1,9.38-2.29c4,0,7.75.34,10.65,1.92a15.84,15.84,0,0,1,6.42,7.19c1.25,2.65,2.22,6.92,2.22,12.61,0,4.77-.26,4.77-.26,9.54s-.84,4.78-.84,9.55.26,4.77.26,9.54c0,3.08-.56,5.25-2,6.79s-3.09,2.89-5.38,2.89a7.9,7.9,0,0,1-5.82-2.44c-1.42-1.56-2-4.19-2-7.24,0-6.16.87-6.16.87-12.32s-1-6.17-1-12.33a52.71,52.71,0,0,0-.57-7.51c-.27-1.89-.21-3.84-1.39-5.13s-3.28-1.59-5.68-1.59A10.21,10.21,0,0,0,774,176a12.5,12.5,0,0,0-4,4.92C768.87,183.43,769.28,187.91,769.28,194.18Z"/><path class="cls-4" d="M444.73,216.23c-.14-.22-.5-.36-1.15-.36a5.71,5.71,0,0,0-1.08.14,6.18,6.18,0,0,1-1.08.29l-2.09.21a10.07,10.07,0,0,0-2.09.44,8.71,8.71,0,0,0-1.15.36,5,5,0,0,1-1.3.21.42.42,0,0,1-.28-.07.57.57,0,0,0-.36-.07,8.82,8.82,0,0,0-1.8.21,8.91,8.91,0,0,1-1.8.22,1.65,1.65,0,0,1-.58-.07,1.65,1.65,0,0,0-.58-.07,14.6,14.6,0,0,0-1.8.14,8.45,8.45,0,0,1-1.87.22A2.21,2.21,0,0,1,425,218a3.34,3.34,0,0,0-.79-.07,16.7,16.7,0,0,0-1.87.07,4.31,4.31,0,0,1-1.95-.14,1.7,1.7,0,0,0-.57-.14,1.46,1.46,0,0,1-.58-.08c-.79-.14-1.66-.28-2.45-.5a13.38,13.38,0,0,1-2.45-.65,8.41,8.41,0,0,1-2.23-1.15,5.92,5.92,0,0,1-1.8-1.73,5.21,5.21,0,0,1-.72-1.37,3.4,3.4,0,0,1-.29-1.51,5.63,5.63,0,0,1,.22-1.51,5.63,5.63,0,0,0,.22-1.51v-.44c-.08-.07-.08-.28,0-.57a1.6,1.6,0,0,1,.21-.58,9.11,9.11,0,0,1,1.59-2.37c.72-.8,1.51-1.52,2.37-2.31s1.8-1.37,2.74-2a21.64,21.64,0,0,1,2.52-1.37,3.56,3.56,0,0,0,.65-.36,6.75,6.75,0,0,1,.79-.58,7.72,7.72,0,0,0,.79-.57,1.19,1.19,0,0,1,.51-.22,4.28,4.28,0,0,0,1.94-.43l1.8-1a19.78,19.78,0,0,1,3.67-1.66c1.08-.28,2.31-.72,3.67-1.22.94-.36,1.8-.72,2.74-1.08s1.8-.72,2.74-1.08a15.88,15.88,0,0,1,2.08-.72,5.8,5.8,0,0,0,1.95-.79,1.77,1.77,0,0,0,.79-1.44,6,6,0,0,0-.07-1,7.26,7.26,0,0,0-.36-1.15c-.22-.36-.43-.72-.65-1a1,1,0,0,0-.86-.43,3.77,3.77,0,0,0-1.37.36c-.58.28-1,.5-1.37.72l-.58.21c-.21.08-.5.15-.72.22-.72.21-1.44.43-2.16.72s-1.44.65-2.16.94a17.18,17.18,0,0,1-2.23.79,8.75,8.75,0,0,1-2.3.36,4.41,4.41,0,0,1-1.66-.36c-.5-.22-1.08-.43-1.58-.65a5.15,5.15,0,0,1-1.23-.86,5,5,0,0,1-1.08-1,7.3,7.3,0,0,1-1-1.88,12,12,0,0,1-.87-2.3,14.76,14.76,0,0,1-.65-2.38,11.63,11.63,0,0,1-.21-2,7.74,7.74,0,0,1,.07-1.23v-2.23a5.25,5.25,0,0,0-.07-1,3,3,0,0,1,.07-1.15,6.45,6.45,0,0,0,.14-1.15,17.89,17.89,0,0,0-.14-1.94,18.28,18.28,0,0,1-.15-1.95,6.47,6.47,0,0,1,.15-1.15,5.71,5.71,0,0,0,.14-1.08.56.56,0,0,0-.14-.29,16.61,16.61,0,0,1-1.87-.07,16.88,16.88,0,0,0-1.88-.07,2.24,2.24,0,0,0-1.8.57,3.64,3.64,0,0,0-.43,1.95,5,5,0,0,0,.15,1.08,5.6,5.6,0,0,1,.07,1.08,2.09,2.09,0,0,1-.07.65,2.19,2.19,0,0,0-.08.72,8.34,8.34,0,0,0,.08,1.44v1.51a7,7,0,0,1-.08,1.29,8.16,8.16,0,0,0-.07,1.3,3.52,3.52,0,0,0,.43,1.73,4.83,4.83,0,0,1,.36,1.73,3.87,3.87,0,0,1-.07.93,2.22,2.22,0,0,0,.07.94,10.64,10.64,0,0,1,.22,1.08,11.23,11.23,0,0,0,.36,1.44,7.83,7.83,0,0,0,.36,1.37c.14.43.29.79.36,1.08a1.83,1.83,0,0,0,.43.65,2.59,2.59,0,0,1,.36.64,2.54,2.54,0,0,1,.36.8c.07.28.22.57.29.86a2.56,2.56,0,0,0,.65.86,12.94,12.94,0,0,0,1.08.94,9.51,9.51,0,0,0,.93.86c.29.29.44.51.44.65s-.15.29-.44.43a4.27,4.27,0,0,1-1,.51,3.48,3.48,0,0,1-1.08.43c-.36.14-.65.29-.8.36a5.2,5.2,0,0,0-1,.79,4.87,4.87,0,0,1-1,.72,16.58,16.58,0,0,1-1.73.79,10.22,10.22,0,0,0-1.73,1,25.61,25.61,0,0,0-2.95,2.52,4.85,4.85,0,0,1-.65.58,5.41,5.41,0,0,0-.65.57,2.35,2.35,0,0,0-.5.72,5.54,5.54,0,0,1-.5.87,1.59,1.59,0,0,1-.44.5,2,2,0,0,0-.5.58,28.67,28.67,0,0,0-1.51,2.66,6.2,6.2,0,0,0-.87,3,3.43,3.43,0,0,0,.08.93,4,4,0,0,1,.07.94v1.08a2.82,2.82,0,0,0,.07,1.08,8.78,8.78,0,0,0,.5,1.37c.22.57.44,1.15.72,1.72a11.88,11.88,0,0,0,.94,1.59,2.91,2.91,0,0,0,.94,1.08,9.26,9.26,0,0,1,1,.65,7.12,7.12,0,0,1,.8.64c.14.08.28.22.43.29a.69.69,0,0,0,.43.36c.43.22.94.43,1.44.65a10.26,10.26,0,0,0,1.44.5,4.38,4.38,0,0,0,2,1.08c.79.15,1.58.29,2.3.36a1.26,1.26,0,0,0,.58.29c.28.07.57.15.93.22s.58.07.87.14h1.73a4.44,4.44,0,0,1,1-.07,2,2,0,0,1,1.08.29,3.33,3.33,0,0,0,1.66.29,1.46,1.46,0,0,0,.58-.08,1.06,1.06,0,0,1,.5-.07h1.51a10.83,10.83,0,0,0,1.51-.07c.44-.07.87-.07,1.3-.14a5.91,5.91,0,0,1,1.22-.08H434a1.76,1.76,0,0,1,.58-.14,10,10,0,0,1,1.44.07h1.37l1.94-.5h1.37c.36-.07.79-.15,1.3-.29a4,4,0,0,0,2-.94,3.08,3.08,0,0,0,.72-2c.07-.29.07-.58.14-.87v-.86A5.24,5.24,0,0,0,444.73,216.23Z"/><path class="cls-5" d="M444.73,216.23c-.14-.22-.5-.36-1.15-.36a5.71,5.71,0,0,0-1.08.14,6.18,6.18,0,0,1-1.08.29l-2.09.21a10.07,10.07,0,0,0-2.09.44,8.71,8.71,0,0,0-1.15.36,5,5,0,0,1-1.3.21.42.42,0,0,1-.28-.07.57.57,0,0,0-.36-.07,8.82,8.82,0,0,0-1.8.21,8.91,8.91,0,0,1-1.8.22,1.65,1.65,0,0,1-.58-.07,1.65,1.65,0,0,0-.58-.07,14.6,14.6,0,0,0-1.8.14,8.45,8.45,0,0,1-1.87.22A2.21,2.21,0,0,1,425,218a3.34,3.34,0,0,0-.79-.07,16.7,16.7,0,0,0-1.87.07,4.31,4.31,0,0,1-1.95-.14,1.7,1.7,0,0,0-.57-.14,1.46,1.46,0,0,1-.58-.08c-.79-.14-1.66-.28-2.45-.5a13.38,13.38,0,0,1-2.45-.65,8.41,8.41,0,0,1-2.23-1.15,5.92,5.92,0,0,1-1.8-1.73,5.21,5.21,0,0,1-.72-1.37,3.4,3.4,0,0,1-.29-1.51,5.63,5.63,0,0,1,.22-1.51,5.63,5.63,0,0,0,.22-1.51v-.44c-.08-.07-.08-.28,0-.57a1.6,1.6,0,0,1,.21-.58,9.11,9.11,0,0,1,1.59-2.37c.72-.8,1.51-1.52,2.37-2.31s1.8-1.37,2.74-2a21.64,21.64,0,0,1,2.52-1.37,3.56,3.56,0,0,0,.65-.36,6.75,6.75,0,0,1,.79-.58,7.72,7.72,0,0,0,.79-.57,1.19,1.19,0,0,1,.51-.22,4.28,4.28,0,0,0,1.94-.43l1.8-1a19.78,19.78,0,0,1,3.67-1.66c1.08-.28,2.31-.72,3.67-1.22.94-.36,1.8-.72,2.74-1.08s1.8-.72,2.74-1.08a15.88,15.88,0,0,1,2.08-.72,5.8,5.8,0,0,0,1.95-.79,1.77,1.77,0,0,0,.79-1.44,6,6,0,0,0-.07-1,7.26,7.26,0,0,0-.36-1.15c-.22-.36-.43-.72-.65-1a1,1,0,0,0-.86-.43,3.77,3.77,0,0,0-1.37.36c-.58.28-1,.5-1.37.72l-.58.21c-.21.08-.5.15-.72.22-.72.21-1.44.43-2.16.72s-1.44.65-2.16.94a17.18,17.18,0,0,1-2.23.79,8.75,8.75,0,0,1-2.3.36,4.41,4.41,0,0,1-1.66-.36c-.5-.22-1.08-.43-1.58-.65a5.15,5.15,0,0,1-1.23-.86,5,5,0,0,1-1.08-1,7.3,7.3,0,0,1-1-1.88,12,12,0,0,1-.87-2.3,14.76,14.76,0,0,1-.65-2.38,11.63,11.63,0,0,1-.21-2,7.74,7.74,0,0,1,.07-1.23v-2.23a5.25,5.25,0,0,0-.07-1,3,3,0,0,1,.07-1.15,6.45,6.45,0,0,0,.14-1.15,17.89,17.89,0,0,0-.14-1.94,18.28,18.28,0,0,1-.15-1.95,6.47,6.47,0,0,1,.15-1.15,5.71,5.71,0,0,0,.14-1.08.56.56,0,0,0-.14-.29,16.61,16.61,0,0,1-1.87-.07,16.88,16.88,0,0,0-1.88-.07,2.24,2.24,0,0,0-1.8.57,3.64,3.64,0,0,0-.43,1.95,5,5,0,0,0,.15,1.08,5.6,5.6,0,0,1,.07,1.08,2.09,2.09,0,0,1-.07.65,2.19,2.19,0,0,0-.08.72,8.34,8.34,0,0,0,.08,1.44v1.51a7,7,0,0,1-.08,1.29,8.16,8.16,0,0,0-.07,1.3,3.52,3.52,0,0,0,.43,1.73,4.83,4.83,0,0,1,.36,1.73,3.87,3.87,0,0,1-.07.93,2.22,2.22,0,0,0,.07.94,10.64,10.64,0,0,1,.22,1.08,11.23,11.23,0,0,0,.36,1.44,7.83,7.83,0,0,0,.36,1.37c.14.43.29.79.36,1.08a1.83,1.83,0,0,0,.43.65,2.59,2.59,0,0,1,.36.64,2.54,2.54,0,0,1,.36.8c.07.28.22.57.29.86a2.56,2.56,0,0,0,.65.86,12.94,12.94,0,0,0,1.08.94,9.51,9.51,0,0,0,.93.86c.29.29.44.51.44.65s-.15.29-.44.43a4.27,4.27,0,0,1-1,.51,3.48,3.48,0,0,1-1.08.43c-.36.14-.65.29-.8.36a5.2,5.2,0,0,0-1,.79,4.87,4.87,0,0,1-1,.72,16.58,16.58,0,0,1-1.73.79,10.22,10.22,0,0,0-1.73,1,25.61,25.61,0,0,0-2.95,2.52,4.85,4.85,0,0,1-.65.58,5.41,5.41,0,0,0-.65.57,2.35,2.35,0,0,0-.5.72,5.54,5.54,0,0,1-.5.87,1.59,1.59,0,0,1-.44.5,2,2,0,0,0-.5.58,28.67,28.67,0,0,0-1.51,2.66,6.2,6.2,0,0,0-.87,3,3.43,3.43,0,0,0,.08.93,4,4,0,0,1,.07.94v1.08a2.82,2.82,0,0,0,.07,1.08,8.78,8.78,0,0,0,.5,1.37c.22.57.44,1.15.72,1.72a11.88,11.88,0,0,0,.94,1.59,2.91,2.91,0,0,0,.94,1.08,9.26,9.26,0,0,1,1,.65,7.12,7.12,0,0,1,.8.64c.14.08.28.22.43.29a.69.69,0,0,0,.43.36c.43.22.94.43,1.44.65a10.26,10.26,0,0,0,1.44.5,4.38,4.38,0,0,0,2,1.08c.79.15,1.58.29,2.3.36a1.26,1.26,0,0,0,.58.29c.28.07.57.15.93.22s.58.07.87.14h1.73a4.44,4.44,0,0,1,1-.07,2,2,0,0,1,1.08.29,3.33,3.33,0,0,0,1.66.29,1.46,1.46,0,0,0,.58-.08,1.06,1.06,0,0,1,.5-.07h1.51a10.83,10.83,0,0,0,1.51-.07c.44-.07.87-.07,1.3-.14a5.91,5.91,0,0,1,1.22-.08H434a1.76,1.76,0,0,1,.58-.14,10,10,0,0,1,1.44.07h1.37l1.94-.5h1.37c.36-.07.79-.15,1.3-.29a4,4,0,0,0,2-.94,3.08,3.08,0,0,0,.72-2c.07-.29.07-.58.14-.87v-.86A5.24,5.24,0,0,0,444.73,216.23Z"/><path d="M731.47,287.26c-.27-.09-.45-.27-.72-.36a.33.33,0,0,1-.27-.09c-.09-.09-.27-.09-.36-.18-.9-.45-1.8-.9-2.7-1.26a15.23,15.23,0,0,1-2.79-1.17,3.65,3.65,0,0,1-.81-.45c-.27-.18-.63-.36-.9-.54a7.55,7.55,0,0,1-2.7-1.35c-1-.63-1.8-1.26-2.52-1.71l-.54-.27a4.39,4.39,0,0,1-.63-.27,5.37,5.37,0,0,1-1.35-.81,12.88,12.88,0,0,0-1.35-1,20.9,20.9,0,0,1-2.7-2c-.27-.27-.45-.54-.72-.63a2.4,2.4,0,0,1-.9-.54c-.63-.63-1.26-1.17-1.89-1.71a11.71,11.71,0,0,1-2.07-1.62c-.27-.27-.54-.63-.81-.9s-.63-.54-.9-.81a22.47,22.47,0,0,1-2.07-2.07c-.72-.72-1.44-1.44-2.07-2.16a29,29,0,0,1-2.52-3.33,12.88,12.88,0,0,0-2.79-3,7.1,7.1,0,0,0-2.7-1.08c-1-.09-1.89-.18-2.88-.18h-.9a3.2,3.2,0,0,0-.9.18,2,2,0,0,0-1.17.81c-.36.54-.63,1-.81,1.26l-.09.09c-.27.54-.63,1.08-.9,1.62s-.72,1.08-1.08,1.53a5.49,5.49,0,0,1-1.08,1.44,6.29,6.29,0,0,0-1.17,1.53,19.15,19.15,0,0,1-2.07,2.88c-.9,1-1.8,1.8-2.61,2.61s-1.62,1.62-2.43,2.52a15.25,15.25,0,0,1-2.52,2.34q-2.83,2.3-5.4,4.32a41.2,41.2,0,0,1-5.85,3.87l-3.24,1.89c-1.08.63-2.16,1.26-3.33,1.89a4.24,4.24,0,0,1-1.35.54,4.24,4.24,0,0,0-1.35.54l-.27.27c-.09.09-.18.27-.27.36a2,2,0,0,0,.54,1.08,10.73,10.73,0,0,0,1.35,1.62c.45.54,1,1,1.44,1.44s.72.81.9,1c.18-.09.45-.18.81-.36a4.39,4.39,0,0,0,1.17-.54l1.08-.54a8.3,8.3,0,0,1,.72-.45c.18-.09.45-.18.81-.36a8.3,8.3,0,0,1,.72-.45c.81-.45,1.53-.9,2.34-1.26s1.44-.81,2.16-1.26c1-.63,2-1.44,3.15-2.25a12.69,12.69,0,0,1,3.15-1.8c.09,0,.09.09.09.18a6.81,6.81,0,0,1-.09,1.35,7,7,0,0,0-.18,1.35.33.33,0,0,0,.09.27v.36c0,.27.27.54.9.63a11.08,11.08,0,0,0,1.8.18,13.29,13.29,0,0,0,1.89.09h2.34a3,3,0,0,0,1.26-.09,5.74,5.74,0,0,0,.63-.18h.63a4.75,4.75,0,0,1,1.17.09,4.56,4.56,0,0,0,1.17.18c1.44,0,2.88,0,4.32-.09H695c1.44.09,2.88.09,4.32.09a6.08,6.08,0,0,0,1.26-.18,5.94,5.94,0,0,1,1.26-.09,6.81,6.81,0,0,1,1.35.09,7,7,0,0,0,1.35.18,13.43,13.43,0,0,0,1.89-.18,13.29,13.29,0,0,1,1.89-.09,2.49,2.49,0,0,1,.81.09,2.49,2.49,0,0,0,.81.09c.81,0,1.26-.45,1.26-1.44v-2.43a2.12,2.12,0,0,0,.18-.72v-.63a.9.9,0,0,0-.36-.45,3.9,3.9,0,0,0-1-.36c-.45-.09-1-.09-1.53-.18a9.78,9.78,0,0,1-1.62-.09h-1.17a23.58,23.58,0,0,0-2.52.09c-.9.09-1.8.18-2.61.18-1.26,0-2.52-.09-3.78-.18s-2.61-.09-3.87-.09a1.33,1.33,0,0,0-.63.09,1.7,1.7,0,0,1-.72.18c-1.53,0-3.06-.09-4.59-.18s-3.15-.09-4.68-.09a7.88,7.88,0,0,0-1.44.18,7.88,7.88,0,0,1-1.44.18H676a12.08,12.08,0,0,1-1.89-.09c-.63,0-.9,0-1-.09-.27,0-.45,0-.54-.09l.09-.27a1.61,1.61,0,0,0,.63-.45,2,2,0,0,1,.45-.36c.81-.63,1.62-1.17,2.34-1.8a15,15,0,0,0,2.07-2.07,5.71,5.71,0,0,1,1.08-.9,5.16,5.16,0,0,0,1-1,14.32,14.32,0,0,0,1.8-2.16A9.4,9.4,0,0,1,684,273.4a3.91,3.91,0,0,0,.54-.63,2.39,2.39,0,0,1,.45-.54c.54-.63,1.08-1.35,1.53-2s1-1.35,1.44-2c.27-.45.63-1,.9-1.53a13.73,13.73,0,0,1,1-1.44,2,2,0,0,0,.27-.45l.27-.27a3,3,0,0,1,.72.54,7.1,7.1,0,0,1,1.08,1.35,7.51,7.51,0,0,0,1.08,1.44,12.13,12.13,0,0,0,1.35,1.53,25.56,25.56,0,0,0,2.16,2.34c.72.81,1.44,1.62,2.07,2.25a7.09,7.09,0,0,0,1.26,1.08,6.92,6.92,0,0,0,1.62,1.62c.63.45,1.26,1,1.89,1.44s1.17,1,1.71,1.44a9.41,9.41,0,0,0,1.71,1.53l1.62,1.08a18.25,18.25,0,0,1,1.62,1.17,5.75,5.75,0,0,1,1.17.9c.54.45.9.72,1.17.72a7.88,7.88,0,0,1,1.08.63c.45.27,1,.63,1.53,1s1.08.72,1.53,1.08.72.63,1,.81a9.6,9.6,0,0,0,2.61,1.44,19.83,19.83,0,0,1,2.7,1.26,10.75,10.75,0,0,1,2,1.08,10.75,10.75,0,0,0,2,1.08,1,1,0,0,0,.45.09c.09.09.18.09.36.09a.49.49,0,0,0,.54-.36c.18-.27.45-.63.81-1.17s.72-1,1.17-1.53.72-1.08,1-1.53a2.49,2.49,0,0,0,.45-1.08A.7.7,0,0,0,731.47,287.26ZM629.59,303.1c-.09-.45-.27-1-.36-1.44a3.32,3.32,0,0,0-.63-1.26,9.56,9.56,0,0,1-.81-1,2.33,2.33,0,0,1-.63-1c-.09-.09-.09-.27-.18-.36s-.18-.27-.27-.36a20.22,20.22,0,0,0-4-3.87,30.21,30.21,0,0,0-5-2.79,31,31,0,0,0-5.58-1.8,30,30,0,0,0-5.58-.54,17.48,17.48,0,0,0-2,.09c-.9.09-1.8.27-2.7.45a18.51,18.51,0,0,0-2.61.63,6.9,6.9,0,0,0-1.8.81,1.24,1.24,0,0,0-.45.72,4.64,4.64,0,0,0-.18,1,3.42,3.42,0,0,0,.54,2,1.68,1.68,0,0,0,1.71.9,12.2,12.2,0,0,0,1.8-.18,10.33,10.33,0,0,1,1.71-.09,2.49,2.49,0,0,1,.81.09,1.75,1.75,0,0,0,.72.09,14.58,14.58,0,0,1,2,.09,14.58,14.58,0,0,0,2,.09c.36,0,.63,0,.72-.09a17.88,17.88,0,0,1,3.42.45,16.37,16.37,0,0,1,3.15,1,12.06,12.06,0,0,1,2.43,1.53c.81.72,1.62,1.53,2.43,2.34a18.82,18.82,0,0,1,2.07,2.61,10.53,10.53,0,0,1,1.08,2.7,8.85,8.85,0,0,0,.45,1.44,4.2,4.2,0,0,1,.27,1.53,9.36,9.36,0,0,1-.18,1.35c-.18.63-.36,1.17-.54,1.8s-.36,1.26-.54,1.8-.45,1.08-.54,1.35c0,0-.18.27-.54.72s-.81,1-1.26,1.53a12.85,12.85,0,0,1-1.35,1.62c-.45.54-.63.81-.72.9a6.07,6.07,0,0,1-2.43,1.53,17.5,17.5,0,0,0-2.7,1.17l-1.08.54a2.49,2.49,0,0,1-1.17.27,2.77,2.77,0,0,1-2-1.08,14.74,14.74,0,0,1-2.07-2.52c-.63-.9-1.26-1.8-1.89-2.79a16.71,16.71,0,0,0-1.62-2.07c-.63-.63-1.44-1.35-2.25-2.07s-1.8-1.26-2.61-1.71a9.19,9.19,0,0,0-2.61-1q-1.49-.27-2.7-.54a3.2,3.2,0,0,1-.81-.36,3.24,3.24,0,0,0-1-.18c-.36,0-.9.09-1.71.18a23,23,0,0,0-2.43.45,17.76,17.76,0,0,0-2.34.63,4,4,0,0,0-1.44.81c-.45.54-.81,1.08-1.26,1.53s-.81,1.08-1.26,1.53c-.27.45-.63.9-.9,1.44a3.43,3.43,0,0,0-.54,1.71,13.29,13.29,0,0,0,.09,1.89,14,14,0,0,0,.36,1.89,4.78,4.78,0,0,0,1.08,2.25,12.71,12.71,0,0,0,4.41,3.69,40.67,40.67,0,0,0,5.4,2,10.88,10.88,0,0,1,1.62.45,7.6,7.6,0,0,0,1.53.45,24.67,24.67,0,0,0,2.52.45c.81.09,1.62.27,2.43.36a2.8,2.8,0,0,0,1,.09.54.54,0,0,0,.36-.09.54.54,0,0,1,.36-.09,3.2,3.2,0,0,1,.9.18,3.06,3.06,0,0,0,.9.09,7.92,7.92,0,0,0,1.26-.09c.54-.09,1.08-.09,1.71-.18s1.08-.27,1.62-.36,1-.09,1.26-.18a14.87,14.87,0,0,1,3.42-.45,8.43,8.43,0,0,0,3.33-.63,2.79,2.79,0,0,0,1.17-.54,3.11,3.11,0,0,1,1.08-.63c.63-.27,1.26-.63,2.07-1a5.76,5.76,0,0,0,1.8-1.26,7.89,7.89,0,0,1,1.26-.72,7.69,7.69,0,0,0,1.44-1,12.51,12.51,0,0,0,2.16-2.79c.72-1.17,1.35-2.16,1.8-3a5.82,5.82,0,0,1,.72-.81,4.4,4.4,0,0,0,.81-1.35,4.8,4.8,0,0,0,.36-1,17.5,17.5,0,0,1,.45-1.8,16.23,16.23,0,0,0,.45-1.71c.09-.45.18-.81.18-.9a17.67,17.67,0,0,0-.36-3.87C630.31,305.62,630,304.36,629.59,303.1Zm-27,21.24c0,.09-.18.18-.45.27s-.63.18-1,.27a4.38,4.38,0,0,1-1.08.09,2.9,2.9,0,0,1-.72.09h-2.61a7.13,7.13,0,0,1-2.16-.45c-.81-.27-1.53-.45-2.16-.63a15.71,15.71,0,0,1-3-1.17,5.52,5.52,0,0,1-2.16-2.34,9.08,9.08,0,0,1-.63-1.35,3.61,3.61,0,0,1-.27-1.35,1.83,1.83,0,0,1,.54-1.35,6.39,6.39,0,0,1,1.26-.9,4.3,4.3,0,0,1,1.62-.54,8.24,8.24,0,0,1,1.44-.09,10.56,10.56,0,0,1,2.7.45,11.81,11.81,0,0,1,4.5,2.34,12.09,12.09,0,0,1,2.88,4.14,5.5,5.5,0,0,0,.63,1.26c.18.36.36.72.63,1.17Zm-325.8-18.27a18.84,18.84,0,0,1,.09-2.16,14.93,14.93,0,0,0-.18-2.16c-.09-.27-.18-.63-.27-1a4.38,4.38,0,0,1-.09-1.08,4,4,0,0,1,.09-1v-1a13.43,13.43,0,0,0-.18-1.89,13.16,13.16,0,0,1-.45-1.8c0-.09-.09-.36-.18-.81s-.18-.81-.27-1.26-.18-.81-.27-1.17-.18-.54-.18-.63V290c0-.18,0-.27-.09-.36a4.72,4.72,0,0,0-.81-2.07c-.54-.9-.9-1.62-1.17-2.07a14.75,14.75,0,0,0-2.16-2.88,17.25,17.25,0,0,0-3-1.89,13.82,13.82,0,0,0-3.51-1.53,21.76,21.76,0,0,0-3.78-.27,17.57,17.57,0,0,0-2.07.18,1.26,1.26,0,0,0-1.17,1.44,3.37,3.37,0,0,0,.09,1,4.38,4.38,0,0,1,.09,1.08,3.38,3.38,0,0,0,.09.9,2.78,2.78,0,0,1-.18,1,2.29,2.29,0,0,0-.18.63.54.54,0,0,0,.36.09.33.33,0,0,1,.27.09h1a3.06,3.06,0,0,0,.9.09,2,2,0,0,0,.81-.09,1.53,1.53,0,0,1,.9,0c.36.09.72.27,1.17.36a10.09,10.09,0,0,0,1.17.45,5.31,5.31,0,0,0,.72.36,1.39,1.39,0,0,1,.54.27c.27.27.54.45.81.72s.45.54.72.81a4.5,4.5,0,0,1,.45.63,9.82,9.82,0,0,1,.54,1c.09.45.27.81.36,1.17s.36.63.45.81a3.91,3.91,0,0,0,.36.63,3.91,3.91,0,0,1,.36.63,11.74,11.74,0,0,1,.27,1.17c.09.63.27,1.53.45,2.7s.18,2.25.18,2.88v.72c0,.36-.27.63-.72.72-.18.09-.54.18-1,.36s-1.08.36-1.71.54-1.17.36-1.62.45-.9.18-1.08.18a.33.33,0,0,1-.27-.09h-.36a7.48,7.48,0,0,0-1.17.18,7.6,7.6,0,0,0-1.53.45,5.5,5.5,0,0,0-1.26.63,1.13,1.13,0,0,0-.63.9.67.67,0,0,0,.09.45,2.48,2.48,0,0,0,.63.81,6.31,6.31,0,0,1,.72.9,8.22,8.22,0,0,1,1.17,2c0,.09.09.18.27.18s.27-.09.63-.18.63-.18,1.08-.36.81-.27,1.17-.36.63-.18.72-.18a17.76,17.76,0,0,1,2.34-.63,10.38,10.38,0,0,1,2.34-.27,5.61,5.61,0,0,0,.63,2.07c.27.36.9.54,2,.54H275a2.63,2.63,0,0,1,.81-.18,1.33,1.33,0,0,0,.63-.09.74.74,0,0,0,.45-.45,2.58,2.58,0,0,0,.18-1.08A4.38,4.38,0,0,0,277,307,3.2,3.2,0,0,1,276.79,306.07Zm-91.8-16c-.27-.27-.63-.54-.9-.81s-.72-.45-1.08-.72c-.54-.27-1.35-.72-2.43-1.26s-2.16-1.08-3.33-1.62-2.34-1-3.42-1.44a9.51,9.51,0,0,0-2.61-.54,13,13,0,0,0-1.71-.54c-.72-.09-1.44-.27-2.16-.36s-1.53-.09-2.25-.18a16.07,16.07,0,0,0-1.89-.09h-1.35c-.72.09-1.44.09-2.16.18l-2,.27c-.63.09-.9.27-1,.54a4,4,0,0,0-.18.9v1.89a1.58,1.58,0,0,0,.54,1.35,2.38,2.38,0,0,0,1.26.63,7.93,7.93,0,0,0,1.53.18H166a8.09,8.09,0,0,1,1.08.27c.54.18.81.36.81.45s-.27.27-.81.45a4.8,4.8,0,0,0-1,.36,20.84,20.84,0,0,0-2,.72,6,6,0,0,0-1.53,1.53,21.83,21.83,0,0,0-1.26,1.8c-.45.81-.9,1.62-1.17,2.25a9.18,9.18,0,0,0-.81,2,18,18,0,0,0-.36,2.16,22.29,22.29,0,0,0-.18,2.61,4.75,4.75,0,0,0,.09,1.17v1.17a1.33,1.33,0,0,1-.09.63,1.33,1.33,0,0,0-.09.63,21.93,21.93,0,0,0,.09,2.43,21.93,21.93,0,0,1,.09,2.43v2.16c-.09.27-.18.36-.27.36a.68.68,0,0,1-.36-.18,2,2,0,0,0-.45-.27,1.33,1.33,0,0,1-.63-.09,14.77,14.77,0,0,0-2.07-.18H153a7.74,7.74,0,0,1-1.44-.09,9.26,9.26,0,0,0-1.53-.09,5.16,5.16,0,0,1-1.08-.09,3.36,3.36,0,0,0-1.08.18c-1,.27-2.25.63-3.69,1.08a11,11,0,0,0-3.42,1.62,3.16,3.16,0,0,1-.72.45,5,5,0,0,0-.81.63,7,7,0,0,0-1.44,2.16,14.35,14.35,0,0,0-1.08,2.43c-.09.27-.18.54-.27.9a6.65,6.65,0,0,0-.18,1.08,7.05,7.05,0,0,0,1.17,3.69A8.23,8.23,0,0,0,140,330.1a9.54,9.54,0,0,0,1.89,1c.54.27,1.17.45,1.89.72s1.71.45,2.61.72a12,12,0,0,0,2.52.27,16.07,16.07,0,0,0,1.89-.09,4.36,4.36,0,0,0,1.8-.45,2.25,2.25,0,0,1,1.26-.36,6.67,6.67,0,0,0,4.14-1.26c1-.9,2.16-1.8,3.33-2.7.27-.18.45-.36.72-.54a1.89,1.89,0,0,0,.72-.54,4.8,4.8,0,0,0,.63-.9c.27-.36.54-.81.81-1.26a10,10,0,0,0,.63-1.44,2.93,2.93,0,0,0,.27-.9c0-.27.18-.54.63-.72a4,4,0,0,1,.9-.18,5.68,5.68,0,0,1,2,.45,10.75,10.75,0,0,1,2,1.08l1.89,1.35c.63.45,1.08.9,1.53,1.17.27.18.63.45,1.08.72a8.92,8.92,0,0,0,1.53,1,12.88,12.88,0,0,0,1.35,1,4.38,4.38,0,0,1,.9.72c.36.27.72.63,1.17,1a2.21,2.21,0,0,0,1.44.54,1.94,1.94,0,0,0,1.17-.54,15.67,15.67,0,0,0,1.08-1.26,8.55,8.55,0,0,0,.9-1.53A2.42,2.42,0,0,0,185,326a1.88,1.88,0,0,0-.63-1.35c-.45-.45-.9-.9-1.44-1.35s-1.17-.81-1.71-1.17-1.08-.63-1.44-.81c-1-.63-1.89-1.17-2.7-1.8a11.58,11.58,0,0,0-3-1.62c-1-.36-1.89-.72-2.88-1.08s-1.89-.63-2.88-.9a2.15,2.15,0,0,0-.63-.27,3.33,3.33,0,0,1-1-.45,3.65,3.65,0,0,1-.81-.45.65.65,0,0,1-.36-.54,2,2,0,0,1,.09-.72v-.63a9.78,9.78,0,0,0-.09-1.62,8.23,8.23,0,0,1-.09-1.53,4,4,0,0,1,.09-1,3.06,3.06,0,0,0,.09-.9V306.7a1.53,1.53,0,0,1,0-.9c.09-.63.27-1.17.36-1.8a10.33,10.33,0,0,0,.09-1.71,13.29,13.29,0,0,0-.09-1.89,3.55,3.55,0,0,1,.36-1.89,3.65,3.65,0,0,1,.45-.81,3.65,3.65,0,0,1,.45-.81c.27-.45.63-.81.9-1.26a5.78,5.78,0,0,1,.9-1.17,7.84,7.84,0,0,1,2.88-1.8,11.18,11.18,0,0,1,3.33-.54,6.69,6.69,0,0,1,2.52.54,21.55,21.55,0,0,1,2.52,1.17c.81.45,1.44.81,2,1.17a3.64,3.64,0,0,0,1,.54.68.68,0,0,0,.36-.18c.09-.09.09-.27.18-.36a8.3,8.3,0,0,1,1.17-1.71,2.36,2.36,0,0,0,.81-1.71,2.66,2.66,0,0,0-.18-.9A4.06,4.06,0,0,0,185,290.05Zm-26.55,31a4.64,4.64,0,0,1-.18,1,8.77,8.77,0,0,0-.45,1,3.87,3.87,0,0,1-1.71,1.89,9.28,9.28,0,0,1-2.7,1.26,17.48,17.48,0,0,1-3,.63c-1,.09-1.89.18-2.61.18a5.25,5.25,0,0,1-1.8-.36,3.45,3.45,0,0,1-1.53-.72,2,2,0,0,1-.45-.72,3.65,3.65,0,0,1-.45-.81,4.78,4.78,0,0,1-.27-1,3.76,3.76,0,0,1-.27-.81,1.1,1.1,0,0,1,.36-.81,1.21,1.21,0,0,1,.63-.54,10.24,10.24,0,0,1,3.78-1.71,20.54,20.54,0,0,1,4.05-.36h4.23c.18,0,.27,0,.36.09a2.49,2.49,0,0,1,.81.09,1.3,1.3,0,0,0,.63.18.33.33,0,0,0,.27.09.28.28,0,0,1,.18.09,1.33,1.33,0,0,0,.09.63Zm-21.15-24.57a7.79,7.79,0,0,0,.63-1.53,4.58,4.58,0,0,1,.63-1.53c.63-1.17,1.26-2.34,1.89-3.69a12,12,0,0,0,1.17-3.87,20.36,20.36,0,0,1,.72-3.06,5.43,5.43,0,0,1,1.17-2.61q.13-.4.81-.54h.9a9.92,9.92,0,0,1,1.62.18,7.93,7.93,0,0,0,1.53.18,1.14,1.14,0,0,0,.54-.09.67.67,0,0,1,.45-.09h6.57c.45,0,.63-.18.63-.54v-.72a2,2,0,0,1-.09-.72,7,7,0,0,1,.18-1.35,6.81,6.81,0,0,0,.09-1.35,5.54,5.54,0,0,0-.09-1.17.83.83,0,0,0-.9-.54,8.54,8.54,0,0,0-1.8.18,7.88,7.88,0,0,1-1.44.18h-1.44c-.81,0-1.71,0-2.61-.09s-1.8-.09-2.61-.18-1.17-.18-1.26-.36v-.45a4.17,4.17,0,0,0,.36-1.89,2,2,0,0,1-.09-1.08c.09-.45.18-1,.27-1.53s.27-1.08.36-1.62a7.06,7.06,0,0,0,.18-1.26v-.9a1.25,1.25,0,0,1,0-.81l.27-1.08a4.38,4.38,0,0,0,.09-1.08v-.36a.54.54,0,0,1-.09-.36c-.09-.09-.09-.36-.09-.63a19.05,19.05,0,0,0-.09-2.7c-.09-.45-.9-.72-2.25-.72h-1.17a5.94,5.94,0,0,1-1.26.09,7.74,7.74,0,0,0-2.07.18c-.27.18-.36.81-.36,1.89s0,1.89.09,2.79.09,1.8.09,2.79a5.31,5.31,0,0,1-.18,1.26l-.27,1.35c-.09.63-.18,1.53-.27,2.52s-.36,2-.45,2.61a2,2,0,0,1-.45,1,1.63,1.63,0,0,1-1.26.45,7.74,7.74,0,0,1-1.44-.09,9.26,9.26,0,0,0-1.53-.09h-2.25a18.07,18.07,0,0,1-2.25.09,5.31,5.31,0,0,1-1.26-.18,5.31,5.31,0,0,0-1.26-.18,3.2,3.2,0,0,0-.9.18,4.64,4.64,0,0,1-1,.18,21.93,21.93,0,0,1-2.43-.09,23.58,23.58,0,0,0-2.52-.09,1.75,1.75,0,0,0-.72.09c-.9.09-1.44.45-1.53,1.26a22.46,22.46,0,0,0-.18,2.25v.81a2.49,2.49,0,0,0,.09.81,1.81,1.81,0,0,0,.36.72.6.6,0,0,0,.63.36h1.53a6.81,6.81,0,0,1,1.35.09,5.31,5.31,0,0,0,1.26.18h7.38a4.52,4.52,0,0,0,1.08-.18,4.38,4.38,0,0,1,1.08-.09,17.57,17.57,0,0,1,2.07.18,14.72,14.72,0,0,0,2,.18.7.7,0,0,1,.27.63,1.33,1.33,0,0,1-.09.63,1.33,1.33,0,0,0-.09.63,7.05,7.05,0,0,0-.45,1.26c-.18.45-.36.81-.54,1.26-.63,1.35-1.26,2.79-1.8,4.23a45,45,0,0,0-1.62,4.5,9.09,9.09,0,0,1-1.44,2.79,14.46,14.46,0,0,0-1.71,2.79l-.27.81-.27.81a19.8,19.8,0,0,1-1,2.43c-.54,1-1.08,1.89-1.71,2.88s-1.17,2-1.8,2.88a21.59,21.59,0,0,1-1.62,2.25l.27.36a12.28,12.28,0,0,1-1,1.8c-.45.72-.81,1.44-1.26,2.07a15.39,15.39,0,0,0-1.08,2.07,4.43,4.43,0,0,0-.45,1.62,1.58,1.58,0,0,0,.54,1.17,3,3,0,0,0,1.26,1.08,5,5,0,0,0,1.53.81,2.46,2.46,0,0,0,1.26.36,1.74,1.74,0,0,0,.9-.27,2.1,2.1,0,0,0,.63-.63,12.88,12.88,0,0,1,1-1.35,11.73,11.73,0,0,0,.9-1.35c.27-.63.63-1.35.9-2a20.3,20.3,0,0,1,1-2,8.42,8.42,0,0,1,1.26-1.71,7.49,7.49,0,0,0,1.17-1.62c.09-.27.36-.63.63-1.26a3.71,3.71,0,0,0,.36-1.35l.27-.54a2,2,0,0,0,.27-.45,17,17,0,0,0,.54-1.62,3.39,3.39,0,0,1,.81-1.35,9.2,9.2,0,0,0,1.17-1.53,5.91,5.91,0,0,0,.9-1.53c.09-.27.18-.63.27-1a2.63,2.63,0,0,1,.18-.81c.27-.54.63-1.08.9-1.62S137,297.07,137.29,296.44Zm115.56-6c0-.27,0-.54-.09-.63-.09-.45-.27-1-.36-1.62a7.79,7.79,0,0,0-.63-1.53,10.63,10.63,0,0,1-.54-1.17c-.18-.27-.36-.45-.45-.63a3.91,3.91,0,0,1-.54-.63,7.36,7.36,0,0,1-.72-.81,5.29,5.29,0,0,0-2.52-2,20.71,20.71,0,0,1-3.06-1.08,14.08,14.08,0,0,0-4.95-.9,6.81,6.81,0,0,0-1.35.09,5.94,5.94,0,0,1-1.26.09.6.6,0,0,1-.63-.36,3.75,3.75,0,0,1,.45-.9,4.71,4.71,0,0,0,.54-1.44l.27-1.35c.18-1,.36-2,.45-3s.18-1.89.18-2.88a1.33,1.33,0,0,0-.09-.63,1.3,1.3,0,0,1-.18-.63,4.56,4.56,0,0,1,.18-1.17,4.75,4.75,0,0,0,.09-1.17,2.49,2.49,0,0,0-.09-.81,1.75,1.75,0,0,1-.09-.72,6.81,6.81,0,0,1,.09-1.35v-1.35a2.21,2.21,0,0,0-.45-1.53,2.68,2.68,0,0,0-1.44-.54c-.45-.09-1-.27-1.44-.36a9.26,9.26,0,0,0-1.53-.09,3.22,3.22,0,0,0-1.89.45,2.26,2.26,0,0,0-.54,1.8,14.72,14.72,0,0,0,.18,2,17.34,17.34,0,0,1,.09,2.16,4.08,4.08,0,0,1-.27,1.44,4.2,4.2,0,0,0-.27,1.53c0,1.17,0,2.52-.09,4s-.27,2.79-.45,4a4.75,4.75,0,0,0-.09,1.17,2.25,2.25,0,0,1-.27,1.17c-.09.18-.36.27-.72.27a.4.4,0,0,1-.45.09h-.45a5.94,5.94,0,0,1-1.26-.09,5.94,5.94,0,0,0-1.26-.09,13.29,13.29,0,0,0-1.89.09,14.72,14.72,0,0,1-2,.18,13.43,13.43,0,0,1-1.89-.18,14.58,14.58,0,0,0-2-.09h-2c-.63.09-1.35.09-2,.18-.9.09-1.8.18-2.7.18h-2.7a.68.68,0,0,0-.36.09,1.2,1.2,0,0,1-.45.09.6.6,0,0,0-.36.63,3.38,3.38,0,0,0-.09.9,7,7,0,0,0,.18,1.35,7.74,7.74,0,0,1,.09,1.44.54.54,0,0,0,.09.36.68.68,0,0,1-.18.36V285a.43.43,0,0,0,.45.45,2,2,0,0,0,.72.09,5.15,5.15,0,0,1,1.71,0,8.67,8.67,0,0,0,1.8.27,1.92,1.92,0,0,0,1.08-.27,3.36,3.36,0,0,1,1.08-.18,7.74,7.74,0,0,1,1.44.09,7,7,0,0,0,1.35.18c1,0,2.07,0,3.06-.09h3a10,10,0,0,0,1.53-.18,10,10,0,0,1,1.53-.18c.27,0,.54,0,.63.09a3.1,3.1,0,0,1,.81.09.66.66,0,0,1,.54.63,2.39,2.39,0,0,1-.45,1.26,2.68,2.68,0,0,0-.45,1.35c0,.09,0,.09.09.09v.18c-.09.36-.18.72-.27,1.17s-.18.81-.27,1.17a5.79,5.79,0,0,1-.9,2.16c-.45.72-.81,1.44-1.17,2.16s-.45,1-.54,1.26a6.08,6.08,0,0,1-.45,1.53,16.82,16.82,0,0,1-1.08,2.25c-.45.81-.81,1.53-1.17,2.25a18.11,18.11,0,0,0-.9,1.62,1.21,1.21,0,0,1-.54.63l-.63.63a12.4,12.4,0,0,0-1.08,1.53q-.94,1.49-2.16,3.24c-.81,1.17-1.53,2.34-2.16,3.33s-1,1.62-1.08,1.71a5,5,0,0,1-1.35,1.8,14.94,14.94,0,0,0-1.71,1.62,32,32,0,0,0-2.07,2.79,15.8,15.8,0,0,1-2.16,2.7,2.65,2.65,0,0,1-.72.72l-1.08,1.08-1,1a1.85,1.85,0,0,0-.45.81c0,.27.27.63.9,1a13.06,13.06,0,0,0,2,1.08c.81.36,1.53.63,2.25.9a4.06,4.06,0,0,0,1.44.36c.18,0,.45-.18.81-.63s.72-1,1.17-1.62a18.25,18.25,0,0,0,1.17-1.62,8,8,0,0,1,.81-1.08,17.28,17.28,0,0,1,1.35-1.26A7.83,7.83,0,0,0,215,324c1.35-1.8,2.7-3.6,4-5.49s2.43-3.78,3.51-5.76c.36-.63.81-1.35,1.26-2s.9-1.35,1.35-2l1.35-2.43c.45-.81.9-1.53,1.35-2.25.27-.45.63-.81.9-1.26l.81-1.35a9.75,9.75,0,0,0,.72-1.71,15,15,0,0,1,.72-1.8l.9-1.89a2.63,2.63,0,0,0,.18-.81,2.63,2.63,0,0,1,.18-.81,8.77,8.77,0,0,1,.45-1c.09-.27.27-.63.36-.9a8.88,8.88,0,0,0,.9-2.43,24.67,24.67,0,0,1,.45-2.52,9.34,9.34,0,0,0,.36-1.17,2.29,2.29,0,0,1,.45-1.17.49.49,0,0,1,.54-.36.54.54,0,0,1,.36.09c.09.09.27.18.36.27a3.36,3.36,0,0,0,1.08.18c.45.09.81.09,1.08.18,1.17.18,2.34.45,3.51.72a4.43,4.43,0,0,1,2.7,2.25,4,4,0,0,1,.45,1.35c.09.54.18,1.08.27,1.53.09.63.27,1.26.36,1.8a13.43,13.43,0,0,1,.18,1.89,14.72,14.72,0,0,1-.18,2c-.18.72-.36,1.44-.45,2.07a9.24,9.24,0,0,0-.09,2.25,5.9,5.9,0,0,1-.45,2.25,3.33,3.33,0,0,1-.45,1,5.51,5.51,0,0,0-.45,1.08,2.12,2.12,0,0,0-.18.72,2.12,2.12,0,0,1-.18.72c-.27.63-.63,1.26-.9,1.89a5.87,5.87,0,0,0-.72,2,9.92,9.92,0,0,0-.18,1.62l-.27,1.62a8.66,8.66,0,0,1-.81,1.8c-.45.81-1,1.71-1.53,2.52s-1.17,1.71-1.71,2.34-1,1.17-1.35,1.26a2,2,0,0,1-1.53.63,5.09,5.09,0,0,1-2.52-.72,14.07,14.07,0,0,1-2.25-1.53c-.63-.54-1.26-1.08-1.71-1.53a2.63,2.63,0,0,0-1.26-.72,2.54,2.54,0,0,0-1.35.36,11.73,11.73,0,0,0-1.35.9,4,4,0,0,0-1,1.17,2.68,2.68,0,0,0-.45,1.35,3.59,3.59,0,0,0,.81,2.16,7.78,7.78,0,0,0,1.89,2,14.15,14.15,0,0,0,2.34,1.71,18.29,18.29,0,0,0,2,1.17,10.84,10.84,0,0,0,2.07.54,11.76,11.76,0,0,0,2.07.27,10.33,10.33,0,0,0,4.5-1,12.7,12.7,0,0,0,3.6-2.61,19.11,19.11,0,0,0,3-3.51,45.49,45.49,0,0,0,2.25-4,6.86,6.86,0,0,0,.54-1.8,7.52,7.52,0,0,1,.45-1.8,2.13,2.13,0,0,1,.54-.81,2,2,0,0,0,.45-.72c.09-.27.27-.54.36-.81l.27-.81c.09-.18.18-.54.45-1.17a5.91,5.91,0,0,0,.27-1.17v-.9a3.2,3.2,0,0,1,.18-.9c.27-.81.45-1.53.72-2.34s.54-1.53.81-2.34a12.72,12.72,0,0,0,.72-3.51c.09-1.35.09-2.61.09-3.6a3.37,3.37,0,0,0-.09-1,3.37,3.37,0,0,1-.09-1,5.94,5.94,0,0,1,.09-1.26,4.75,4.75,0,0,0,.09-1.17v-.36a.54.54,0,0,1-.09-.36C252.85,291,252.85,290.77,252.85,290.41Zm328.32,15.21c.45-.45.81-1,1.26-1.44s.81-.9,1.26-1.35c1-1.26,2-2.52,3-3.87s2-2.61,3-3.87a7.36,7.36,0,0,0,1.08-1.8,5.34,5.34,0,0,1,1.17-1.62l.81-.81a3.91,3.91,0,0,0,.54-.63,3.91,3.91,0,0,0,.54-.63c.18-.27.36-.54.63-1a3.43,3.43,0,0,1,.54-.45,1.09,1.09,0,0,0,.63-.63,8.14,8.14,0,0,1,2.16-2.61,11.11,11.11,0,0,0,2.16-2.52c.45-.72,1-1.44,1.53-2.16l1.35-2.16a4.71,4.71,0,0,1,1.08-1.53,1.72,1.72,0,0,0,.81-.81,4.09,4.09,0,0,1,.63-.81,2.39,2.39,0,0,1,.45-.54,2.39,2.39,0,0,0,.45-.54,1.93,1.93,0,0,0,.36-.63,5.34,5.34,0,0,1,.36-.72,3.24,3.24,0,0,1,.72-1.08,7.87,7.87,0,0,0,.72-.9,4.77,4.77,0,0,1,1.44-1.53,3.78,3.78,0,0,1,2-.45h1.8a10.33,10.33,0,0,0,1.71.09,20.48,20.48,0,0,0,2.34-.18,20.34,20.34,0,0,1,2.34-.09.54.54,0,0,1,.36.09.33.33,0,0,0,.27.09c.09,0,.09,0,.18-.09a3.06,3.06,0,0,0-.09-.9,2.49,2.49,0,0,1-.09-.81,9.92,9.92,0,0,1,.18-1.62,9.92,9.92,0,0,0,.18-1.62,3.2,3.2,0,0,0-.18-.9.68.68,0,0,0-.63-.45,19,19,0,0,0-2.34.18,19,19,0,0,1-2.34.18c-1.44,0-2.88-.09-4.32-.18s-2.88-.18-4.32-.18a7.74,7.74,0,0,0-1.44.09,7.88,7.88,0,0,1-1.44.18c-.27,0-.54,0-.63-.09s-.18,0-.18-.09h-.27a10.33,10.33,0,0,0-1.71.09,12.2,12.2,0,0,1-1.8.18,23.72,23.72,0,0,1-2.52-.18,23.72,23.72,0,0,0-2.52-.18h-2.25a20.34,20.34,0,0,0-2.34.09c-.54.09-1.08.09-1.62.18a11.48,11.48,0,0,1-1.71.09,8.54,8.54,0,0,1-1.8-.18,7.93,7.93,0,0,0-1.53-.18c-.27,0-.54,0-.63.09a5,5,0,0,0-1.53.27,1.2,1.2,0,0,0-.81,1.26c-.09.09-.09.27-.09.54a2.49,2.49,0,0,0,.09.81,3.06,3.06,0,0,1,.09.9,7.35,7.35,0,0,1-.09,1.26,1.23,1.23,0,0,0,.27,1.17h.27c0,.09.09.09.18.09a6.19,6.19,0,0,0,1.17-.18,4.38,4.38,0,0,1,1.08-.09,3.06,3.06,0,0,1,.9.09,3.2,3.2,0,0,0,.9.18H591a3.06,3.06,0,0,0,.9-.09,3.06,3.06,0,0,1,.9-.09,2.49,2.49,0,0,1,.81.09,2.49,2.49,0,0,0,.81.09,7.74,7.74,0,0,0,1.44-.09,7.74,7.74,0,0,1,1.44-.09h.9c.36.09.72.09,1.17.18s.81.18,1.17.27.45.27.45.45a1.2,1.2,0,0,1-.27.63c-.27.27-.54.63-.81.9a9.85,9.85,0,0,1-.9,1,3.93,3.93,0,0,0-.63.72,2,2,0,0,1-.27.45l-.27.54-1.35,1.8c-.27.45-.54.81-.72,1.17a13.17,13.17,0,0,1-.81,1.17c-1,1.17-2.07,2.25-3.06,3.42a35.06,35.06,0,0,0-2.79,3.6,15.12,15.12,0,0,1-1.62,1.89,9.54,9.54,0,0,0-1.44,1.71c-.27.45-.54,1-.81,1.44a12.6,12.6,0,0,1-.9,1.44,16.63,16.63,0,0,1-1.26,1.26c-.45.45-.9.81-1.35,1.26a8.75,8.75,0,0,0-1.89,2.43,20.11,20.11,0,0,1-1.8,2.7,2.13,2.13,0,0,0-.54.81,4.51,4.51,0,0,1-.63.72,14.94,14.94,0,0,0-1.17,1.26c-.45.45-.81.9-1.26,1.35-.27.27-.54.63-.9,1.08a3.41,3.41,0,0,0-.81,1.17,4.57,4.57,0,0,0-.18.81,1.56,1.56,0,0,0,.54,1,16.63,16.63,0,0,0,1.26,1.26,5.57,5.57,0,0,0,1.53,1,2.76,2.76,0,0,0,1.17.45c.27,0,.54-.18,1-.54s.72-.81,1.17-1.26a15.64,15.64,0,0,1,1.17-1.35A10,10,0,0,1,581.17,305.62Zm-31.95-31.77h-1a4.38,4.38,0,0,1-1.08.09,8.07,8.07,0,0,1-1.62-.18,9.78,9.78,0,0,0-1.62-.09c-.09-.09-.36-.09-.63-.09a3.2,3.2,0,0,0-.9.18,3.2,3.2,0,0,1-.9.18,2.49,2.49,0,0,1-.81-.09,2.49,2.49,0,0,0-.81-.09h-2.43a4.75,4.75,0,0,0-1.17.09,4.38,4.38,0,0,1-1.08.09,4.2,4.2,0,0,1-1.53-.27,7.93,7.93,0,0,0-1.53-.18,10,10,0,0,0-1.53.18,10,10,0,0,1-1.53.18h-5.4a6,6,0,0,1-3.42-.72c-.63-.45-.9-1.53-.9-3.24v-1.26a3.61,3.61,0,0,1,.27-1.35,5.31,5.31,0,0,0,.18-1.26,21.93,21.93,0,0,0-.09-2.43,19.57,19.57,0,0,1-.09-2.34,7.74,7.74,0,0,1,.09-1.44,6.81,6.81,0,0,0,.09-1.35,1.45,1.45,0,0,0-.27-1,2.41,2.41,0,0,0-1-.18h-1.35a6.81,6.81,0,0,1-1.35.09,10.26,10.26,0,0,0-2.25.18c-.36.09-.54.81-.54,2a4.38,4.38,0,0,0,.09,1.08v1.08a10.33,10.33,0,0,1-.09,1.71,10,10,0,0,0-.18,1.71,9.07,9.07,0,0,0,.27,2.25,9.07,9.07,0,0,1,.27,2.25,2.63,2.63,0,0,1-.18.81A3.59,3.59,0,0,0,513,272a1.76,1.76,0,0,1-.36,1.26,2.64,2.64,0,0,1-1.44.36,12.06,12.06,0,0,1-1.8.09l-1.8.27a4,4,0,0,1-.9.18,5.82,5.82,0,0,1-2-.27,9.92,9.92,0,0,0-1.62-.18h-4.77a1.33,1.33,0,0,0-.63.09,2,2,0,0,1-.72.09,3.37,3.37,0,0,1-1-.09h-1.08a3.37,3.37,0,0,0-1,.09,3.37,3.37,0,0,1-1,.09,4.52,4.52,0,0,1-1.08-.18,4.56,4.56,0,0,0-1.17-.18,17.34,17.34,0,0,0-2.16.09,17.48,17.48,0,0,1-2.16.18H474.7a3.1,3.1,0,0,1-.81-.09h-1.08a3.71,3.71,0,0,0-1.08.09.92.92,0,0,0-.54.45,2,2,0,0,0-.09.81,4.08,4.08,0,0,0,.27,1.44,10,10,0,0,1,.18,1.53.67.67,0,0,1-.09.45.54.54,0,0,1-.09.36,1,1,0,0,0-.09.45c0,.45.36.63,1.08.72a9.94,9.94,0,0,0,1.44.09,9.26,9.26,0,0,0,1.53-.09h1.53a12.06,12.06,0,0,1,1.8.09,10.33,10.33,0,0,0,1.71.09,1.33,1.33,0,0,0,.63-.09c.09-.09.27-.09.54-.09h.72a4.75,4.75,0,0,0,1.17.09h1.08c.27,0,.54,0,.63-.09h.54a5.94,5.94,0,0,1,1.26.09,4.75,4.75,0,0,0,1.17.09,4.38,4.38,0,0,0,1.08-.09,4,4,0,0,0,1-.09,19.18,19.18,0,0,1,4-.18c1.35.09,2.61.09,3.87.09H504c1.89.09,3.87.09,5.85.09a2.49,2.49,0,0,0,.81-.09,2.49,2.49,0,0,1,.81-.09,2.14,2.14,0,0,1,1.35.27,2,2,0,0,1,.27,1.26,21.93,21.93,0,0,1-.09,2.43,23.72,23.72,0,0,0-.18,2.52V287a.33.33,0,0,1,.09.27.33.33,0,0,0,.09.27v.27a.49.49,0,0,1-.36.54,2,2,0,0,1-.72.09,4.75,4.75,0,0,1-1.17-.09,4.75,4.75,0,0,0-1.17-.09h-1.08a3.24,3.24,0,0,0-1,.18,7.92,7.92,0,0,1-1.35.45,9,9,0,0,0-1.26.72,31.72,31.72,0,0,0-3.51,2.79,11.79,11.79,0,0,0-2.61,3.6,15,15,0,0,0-1,5.13v1.71a8.07,8.07,0,0,0,.18,1.62,12.63,12.63,0,0,0,2,4.86,8.15,8.15,0,0,0,3.87,3.33,5.51,5.51,0,0,1,1.08.45,1.81,1.81,0,0,0,1.17.36,2.39,2.39,0,0,0,1.26-.45,4,4,0,0,0,.9-1.17,7,7,0,0,0,.63-1.44,7.06,7.06,0,0,0,.18-1.26,1.68,1.68,0,0,0-.63-1.44,12.24,12.24,0,0,1-1.53-1.08,7.82,7.82,0,0,1-1.44-1.53,3.63,3.63,0,0,1-.72-2.34,14.28,14.28,0,0,1,.27-2.61,8.68,8.68,0,0,1,.9-2.7,9.16,9.16,0,0,1,1.62-2.07,3.85,3.85,0,0,1,2.52-.81,4.88,4.88,0,0,1,2.25.54,9.55,9.55,0,0,1,1.8,1.53,8.82,8.82,0,0,1,1.17,2,7.13,7.13,0,0,1,.45,2.25,2.49,2.49,0,0,1-.09.81,2.49,2.49,0,0,0-.09.81c-.09.09-.09.36-.09.63a2.63,2.63,0,0,0,.18.81,3.37,3.37,0,0,1,.09,1,16.16,16.16,0,0,1-.18,2,12.75,12.75,0,0,1-.63,2c-.18.54-.45,1.26-.81,2.07s-.81,1.8-1.26,2.7-.81,1.71-1.26,2.52a8.59,8.59,0,0,1-1.26,1.8l-3.78,3.78a2.16,2.16,0,0,1-1.08.63,5.1,5.1,0,0,0-1.17.72,19.77,19.77,0,0,1-2.52,1.62q-1.21.68-2.7,1.35a5.34,5.34,0,0,0-.72.36c-.27.09-.54.27-.81.36a3.61,3.61,0,0,1-1.35.27,2.25,2.25,0,0,0-1.26.36,6.75,6.75,0,0,1-1.62.72,6.85,6.85,0,0,1-1.89.27,7.13,7.13,0,0,0-2.25.45,2.65,2.65,0,0,1-.9.27c-.45.18-.72.36-.72.54s.09.27.36.54a2.13,2.13,0,0,1,.54.81c.18.45.45,1.17.72,2.07A6.15,6.15,0,0,0,490,335c.09.18.45.27.9.27a4.87,4.87,0,0,0,1.71-.27,6,6,0,0,1,1.53-.63l1.44-.27,1.44-.27a3.65,3.65,0,0,0,.81-.45,3.65,3.65,0,0,1,.81-.45,4.52,4.52,0,0,1,1.08-.18l1.08-.27c.45-.09.81-.27,1.17-.36a5.51,5.51,0,0,1,1.08-.45,12,12,0,0,0,2.52-1.44,19,19,0,0,1,2.43-1.62,4.16,4.16,0,0,0,1.53-.72c.63-.45,1.08-.72,1.35-.9a20.35,20.35,0,0,0,2.25-1.71,18,18,0,0,0,1.26-1.44c.36-.45.72-.9,1.17-1.44s.9-1.26,1.53-2.07c.27-.27.54-.63.81-.9a5,5,0,0,0,.63-.81,24.13,24.13,0,0,0,1.26-2.61,32.07,32.07,0,0,0,1.17-3.51c.36-1.17.72-2.34,1-3.51a12.38,12.38,0,0,0,.36-2.79,9.78,9.78,0,0,0-.09-1.62,9.78,9.78,0,0,1-.09-1.62v-.54c.18-.18.18-.72.09-1.53s-.36-1.62-.54-2.61-.45-1.89-.72-2.79-.54-1.44-.63-1.71a6.1,6.1,0,0,0-.54-.81,1.08,1.08,0,0,1-.36-.72,23.58,23.58,0,0,1,.09-2.52,23.58,23.58,0,0,0,.09-2.52,10,10,0,0,1,.18-1.71,10,10,0,0,0,.18-1.71,3.71,3.71,0,0,0-.36-1.35c.09-.27.09-.72.18-1.26s.27-.9.54-1c.09,0,.54,0,1.44-.09s1.8,0,2.88-.09h4.68a6.81,6.81,0,0,1,1.35.09,5.31,5.31,0,0,0,1.26.18,24.43,24.43,0,0,0,2.61-.09,24.43,24.43,0,0,1,2.61-.09h2.34a18.07,18.07,0,0,0,2.25.09,6.81,6.81,0,0,0,1.35-.09,6.81,6.81,0,0,1,1.35-.09,7.74,7.74,0,0,1,1.44.09,6.81,6.81,0,0,0,1.35.09,16.64,16.64,0,0,0,2.07-.09c.63-.09,1-.54,1-1.44v-.81a2.49,2.49,0,0,1-.09-.81,4,4,0,0,1,.09-1v-1.08l-.27-.81A1.1,1.1,0,0,0,549.22,273.85Zm177.84,29.43A6.38,6.38,0,0,0,727,302c-.09-.45-.18-.81-.27-1.17a.57.57,0,0,0-.54-.45H716c-1.44,0-2.88,0-4.23.09s-2.88.09-4.32.09c-.9,0-1.8,0-2.7-.09s-1.89-.09-2.79-.09a8.23,8.23,0,0,0-1.53.09,9.26,9.26,0,0,1-1.53.09H690a5.53,5.53,0,0,1-1.26-.09,6.81,6.81,0,0,0-1.35-.09c-.27,0-.45,0-.54.09a1.33,1.33,0,0,1-.63.09c-1.08,0-2.16,0-3.24-.09s-2.25-.09-3.33-.09c-.27,0-.45,0-.54.09a1.33,1.33,0,0,1-.63.09,5.53,5.53,0,0,1-1.26-.09,6.81,6.81,0,0,0-1.35-.09,14.58,14.58,0,0,0-2,.09,14.58,14.58,0,0,1-2,.09,2,2,0,0,1-.72-.09,2,2,0,0,0-.72-.09h-.63a1.33,1.33,0,0,1-.63.09h-.72a1.56,1.56,0,0,0-.9-.09,4.64,4.64,0,0,1-1,.18,1.33,1.33,0,0,1-.63-.09,2,2,0,0,0-.72-.09,1.33,1.33,0,0,0-.63.09,2.25,2.25,0,0,1-1.26,0,1.33,1.33,0,0,0-.63-.09h-2.07a17.34,17.34,0,0,1-2.16.09H658a1.16,1.16,0,0,0-.72-.18,4,4,0,0,1-.81.09c-1.17,0-1.71.63-1.71,2a8.23,8.23,0,0,1-.09,1.53,9.78,9.78,0,0,0-.09,1.62.86.86,0,0,0,.54.81,5.16,5.16,0,0,0,1.26.36,7,7,0,0,0,1.35.18h2.34a5.94,5.94,0,0,0,1.26-.09c.63-.09,1.08-.18,1.35-.18a5.94,5.94,0,0,1,1.26.09,6.08,6.08,0,0,0,1.26.18c.9,0,1.8-.09,2.7-.18a24.43,24.43,0,0,1,2.61-.09c.9,0,1.8,0,2.7.09a23.78,23.78,0,0,0,2.61.18,1.2,1.2,0,0,0,.45-.09h1.44q.27.13.27.27a3.67,3.67,0,0,1-.18.63,5.51,5.51,0,0,1-.45,1.08c-.18.45-.36.81-.54,1.17a5,5,0,0,1-.36.72c-.36.9-.9,2.07-1.53,3.6s-1.35,3.06-2.07,4.59a48.54,48.54,0,0,1-2.25,4.32,9.24,9.24,0,0,1-2.16,2.7,3.66,3.66,0,0,1-2.16.72,13.43,13.43,0,0,1-1.89-.18,5,5,0,0,0-2,.18,7,7,0,0,1-2,.27h-2.07A6.81,6.81,0,0,0,657,327a6.81,6.81,0,0,1-1.35.09.78.78,0,0,0-.27.54,3.71,3.71,0,0,0,.36,1.35c.27.72.54,1.44.81,2.25a13.55,13.55,0,0,0,1,2c.36.54.63.81.9.81h.45c.09.09.27.09.54.09a7,7,0,0,0,1.35-.18,7,7,0,0,1,1.35-.18.54.54,0,0,1,.36.09h.36a2.12,2.12,0,0,0,.72-.18h1.08a4.38,4.38,0,0,1,1.08-.09,6.05,6.05,0,0,0,1.62-.27,4,4,0,0,1,1.8-.36h1.35a9.56,9.56,0,0,0,1.26-.27h.45a1.17,1.17,0,0,0,.9,0,.67.67,0,0,1,.45-.09,20.34,20.34,0,0,0,2.34-.09,16.8,16.8,0,0,0,2.25-.36,3.43,3.43,0,0,1,1.35-.09,5.94,5.94,0,0,0,1.26-.09l1.8-.27a11.47,11.47,0,0,1,1.8-.09c.09-.09.36-.09.81-.18s.81-.09,1.26-.18a5.94,5.94,0,0,1,1.26-.09,3.1,3.1,0,0,1,.81-.09,20.88,20.88,0,0,0,2.16-.18c.81-.09,1.53-.27,2.16-.36l1.89-.27c.63-.09,1.17-.09,1.8-.18l1.44-.27c.45-.09,1-.09,1.44-.18s1-.09,1.62-.18a7.93,7.93,0,0,0,1.53-.18,7.93,7.93,0,0,1,1.53-.18,7.88,7.88,0,0,0,1.44-.18,5,5,0,0,1,1.53-.27h1.53a5.16,5.16,0,0,0,1.08-.09,9.34,9.34,0,0,0,1.08-.27,15.59,15.59,0,0,1,1.8-.36,16.07,16.07,0,0,1,1.89-.09c.27,0,.54,0,.63.09s.36.27.9.81,1,1.26,1.62,2,1.08,1.44,1.62,2.07a10.32,10.32,0,0,1,1,1.26,1.69,1.69,0,0,0,1.26.72,4.53,4.53,0,0,0,1.35-.45,9.53,9.53,0,0,0,1.8-1.08,12.85,12.85,0,0,0,1.62-1.35,1.87,1.87,0,0,0,.63-1.17,3.54,3.54,0,0,0-.18-.54,1.24,1.24,0,0,0-.27-.36c-.81-.81-1.62-1.71-2.43-2.52a30,30,0,0,1-2.25-2.52c-.45-.45-.81-1-1.26-1.44a9.63,9.63,0,0,1-1.26-1.44,7.52,7.52,0,0,0-1.71-1.62,7.52,7.52,0,0,1-1.71-1.62,1.38,1.38,0,0,1-.36-.54,5.22,5.22,0,0,0-.81-.9l-1.35-1.35c-.54-.45-1.08-.81-1.53-1.26a10,10,0,0,1-1-1,5.82,5.82,0,0,0-.81-.72c-.27-.18-.63-.36-.9-.54a5,5,0,0,1-.63-.81c-.27-.27-.54-.45-.81-.72a9.85,9.85,0,0,1-1-.9l-.9-.9h-.18a3.39,3.39,0,0,0-1.26.36,17.85,17.85,0,0,0-1.8,1,11.24,11.24,0,0,0-1.53,1.08c-.45.45-.72.72-.72,1,0,.09.09.27.36.54l.81.81a9.56,9.56,0,0,0,1,.81l.63.63a9.85,9.85,0,0,1,1,.9,9.56,9.56,0,0,1,.81,1,8.68,8.68,0,0,0,1.17,1c.54.54,1.08,1.08,1.71,1.62s1.08,1.17,1.53,1.71.72.9.72,1.17-.18.27-.63.36-.9.18-1.44.27-1.08.09-1.53.18a6,6,0,0,1-1,.09c-1.08.09-2.16.18-3.24.18l-3.15.27-5.22.54a33.93,33.93,0,0,1-5.22.36,6.81,6.81,0,0,0-1.35.09,6.08,6.08,0,0,1-1.26.18,1.33,1.33,0,0,1-.63.09h-.18l-.09-.09c-.09,0-.09,0-.18-.09l-1.44.27a7.88,7.88,0,0,1-1.44.18c-1,0-1.89,0-2.79.09s-1.89.18-2.88.18H676c.81-1.53,1.71-3.15,2.7-4.68s1.71-3.06,2.52-4.59c.09-.09.09-.27.18-.54a.67.67,0,0,1,.09-.45,7.22,7.22,0,0,0,1.35-2.43,11.81,11.81,0,0,1,1.17-2.79,3.72,3.72,0,0,0,.36-.81c.18-.36.36-.72.54-1.17a3.72,3.72,0,0,1,.63-1c.18-.27.36-.45.54-.45a5.94,5.94,0,0,0,1.26-.09,4.75,4.75,0,0,1,1.17-.09,23.58,23.58,0,0,1,2.52.09,21.93,21.93,0,0,0,2.43.09,7.74,7.74,0,0,0,1.44-.09,7.74,7.74,0,0,1,1.44-.09,13.29,13.29,0,0,1,1.89.09,13.43,13.43,0,0,0,1.89.18,7,7,0,0,0,1.35-.18,5.53,5.53,0,0,1,1.26-.09,7.74,7.74,0,0,1,1.44.09,7,7,0,0,0,1.35.18c1.17,0,2.34,0,3.51-.09h3.42c1.53,0,3,0,4.5.09s3,.09,4.5.09a6.46,6.46,0,0,0,1.17-.09,10.92,10.92,0,0,0,1.62-.09,7.93,7.93,0,0,0,1.53-.18c.45-.09.81-.18.9-.36a1.2,1.2,0,0,0,.27-.72,1,1,0,0,0,.18-.63,2.24,2.24,0,0,1-.09-.72Zm-289.17-36.9a9.85,9.85,0,0,1-.9-1l-1-1c-.36-.27-.54-.45-.63-.45h-.27a3.61,3.61,0,0,0-1.35.27,2.85,2.85,0,0,1-1.44.36,5.88,5.88,0,0,1-3.87-1.26,11.78,11.78,0,0,1-2.43-2.79c-.63-1-1.26-1.89-1.8-2.7a2.35,2.35,0,0,0-1.89-1.26,5.86,5.86,0,0,0-2.34.54,1.91,1.91,0,0,0-1.35,1.89,4.77,4.77,0,0,0,1.26,3,19.13,19.13,0,0,1,1.89,2.79v.45a7.71,7.71,0,0,0,1.71,1.71c.63.54,1.17,1.08,1.8,1.71v.18c0,.09,0,.09.09.09a1.4,1.4,0,0,1-.63,1,8,8,0,0,1-1,.72,10.22,10.22,0,0,1-2.07,1.35,9.35,9.35,0,0,0-2.16,1.53,9.56,9.56,0,0,0-1,.81c-.36.27-.72.63-1.08.9a5.71,5.71,0,0,0-1.08.9,5.78,5.78,0,0,1-1.17.9,12.63,12.63,0,0,0-1.62,1.08c-.45.36-1,.81-1.53,1.26s-1.26,1.08-1.8,1.62l-1.62,1.89c-.45.63-.9,1.17-1.35,1.8a14,14,0,0,1-1.44,1.8c-.27.27-.54.63-.81.9l-.9.9a9.33,9.33,0,0,0-1.71,2.88c-.63,1.35-1.08,2.34-1.44,3.06v.63a5.15,5.15,0,0,1,0,1.71c-.09.9-.18,1.53-.18,2a3.65,3.65,0,0,0,.36,1.71,7.79,7.79,0,0,0,.63,1.53,15.9,15.9,0,0,0,3.69,5.31,31.87,31.87,0,0,0,5.13,4.05,6.8,6.8,0,0,1,1.26,1,6.8,6.8,0,0,0,1.26,1,10.74,10.74,0,0,0,1.44.72l1.35.81a4.85,4.85,0,0,0,1.17.63,9.56,9.56,0,0,1,1,.81,2,2,0,0,0,.45.36.48.48,0,0,0,.36.27,2,2,0,0,0,.72.45,1.61,1.61,0,0,1,.63.45c1.17,1,2.43,2.16,3.87,3.51a19.88,19.88,0,0,1,3.24,4,27,27,0,0,1,1.44,3.24,32,32,0,0,1,.81,3.51,1.58,1.58,0,0,0,.09.54.76.76,0,0,0,.18.54c.09.27.54.45,1.26.54a6.44,6.44,0,0,1,1.53.09c.27.09.54.09.72.18s.36.09.63.09a7.48,7.48,0,0,0,1.17-.18,7.05,7.05,0,0,0,1.26-.45,9.56,9.56,0,0,0,1-.81,1.45,1.45,0,0,0,.45-1,7.42,7.42,0,0,0-1-3.51,20.21,20.21,0,0,1-1.71-3.42,10.08,10.08,0,0,0-1.26-2.61c-.54-.63-1.08-1.35-1.71-2.25s-1.08-1.62-1.53-2.43a10.3,10.3,0,0,0-2-2,2.16,2.16,0,0,0-1.08-.63,2.16,2.16,0,0,1-1.08-.63,9.85,9.85,0,0,1-.9-1c-.36-.27-.72-.63-1.08-.9a9.64,9.64,0,0,0-2-1.35,24.1,24.1,0,0,1-2.16-1.08,2.08,2.08,0,0,1-.63-.45,5.33,5.33,0,0,0-.54-.36,6.71,6.71,0,0,1-1.08-.63c-.45-.18-.81-.36-1.17-.54a5,5,0,0,1-.72-.36,15.47,15.47,0,0,1-2.88-2.07c-1-.81-1.89-1.53-2.7-2.25l-.54-.54a3.43,3.43,0,0,1-.54-.45,3.65,3.65,0,0,1-.45-.81l-.54-.81a9.84,9.84,0,0,1-.72-1.35,3.61,3.61,0,0,1-.27-1.35,3.1,3.1,0,0,1,.45-1.8,7.85,7.85,0,0,0,.81-1.53c.09-.27.27-.63.36-.9l.27-.81c.18-.27.36-.63.63-1a5.46,5.46,0,0,0,.63-.9c.27-.54.54-1.08.81-1.53a4.31,4.31,0,0,1,1-1.35l2.34-1.8,2.16-1.89.9-.9.81-.81a4.9,4.9,0,0,1,1.62-1,5.91,5.91,0,0,0,1.53-1.08c.72-.63,1.44-1.35,2.07-2a23.16,23.16,0,0,1,2.16-1.89,10.6,10.6,0,0,1,1.71-1c.63-.27,1.17-.54,1.71-.81.81-.45,1.62-1.08,2.52-1.71s1.8-1.17,2.61-1.71a7.88,7.88,0,0,0,1.08-.63,11.73,11.73,0,0,0,1.35-.9,13.84,13.84,0,0,0,1.17-1.08,1.9,1.9,0,0,0,.45-1,.93.93,0,0,0-.36-.72A5.39,5.39,0,0,1,437.89,266.38Zm-77.13,7.74c-.09-.18-.36-.27-.72-.27a4,4,0,0,0-1.71.54l-2.16,1.08c-.72.45-1.35.81-2,1.17a3.35,3.35,0,0,1-1.35.54,17.74,17.74,0,0,1-4,1.35,17.18,17.18,0,0,1-4.32.63A23.72,23.72,0,0,1,342,279a23.72,23.72,0,0,0-2.52-.18.88.88,0,0,0-.9.72,7.06,7.06,0,0,0-.18,1.26v3a2.63,2.63,0,0,0,.18.81q.14.54.54.54a1.14,1.14,0,0,0,.54-.09,1.14,1.14,0,0,1,.54-.09,3.06,3.06,0,0,1,.9.09,3.06,3.06,0,0,0,.9.09,7.5,7.5,0,0,0,2-.27,13.43,13.43,0,0,1,1.89-.18,6.81,6.81,0,0,1,1.35.09,5.31,5.31,0,0,0,1.26.18,8.91,8.91,0,0,0,3.78-.81c1.17-.45,2.25-1,3.42-1.44.36-.09.72-.18,1.17-.27l1.08-.27a6.55,6.55,0,0,0,1.62-.81,8.21,8.21,0,0,0,1.44-.9,5.34,5.34,0,0,1,.72-.36,8.77,8.77,0,0,0,1-.45l.81-.54a.65.65,0,0,0,.36-.54,3.11,3.11,0,0,0-1.17-2.34A12.72,12.72,0,0,1,360.76,274.12Zm-3.42,49.14-2.16-1.35c-.72-.45-1.26-.72-1.71-1a5.51,5.51,0,0,0-1.08-.45,2,2,0,0,1-1.08-.45q-2.56-1.49-5.4-3.24a21.82,21.82,0,0,0-5.76-2.25,6.2,6.2,0,0,1-.72-.27c-.27-.09-.54-.27-.81-.36s-.72-.27-1.08-.36-.72-.27-1.08-.36a3.61,3.61,0,0,1-1.44-.72,1.36,1.36,0,0,1-.81-1.26,1.58,1.58,0,0,1,.09-.54c.09-.18.09-.36.18-.45v-.81a18.07,18.07,0,0,0-.09-2.25,17.53,17.53,0,0,1-.18-2.25,1.14,1.14,0,0,1,.09-.54.67.67,0,0,0,.09-.45,6.81,6.81,0,0,0-.09-1.35,4.56,4.56,0,0,1-.18-1.17,1.33,1.33,0,0,1,.09-.63,1.76,1.76,0,0,1,.09-.63,6.72,6.72,0,0,1,.09-1c.09-.63.09-1.26.18-2s.09-1.26.18-1.89v-1.08a2.49,2.49,0,0,0-.09-.81,1.7,1.7,0,0,1-.18-.72,2.49,2.49,0,0,1,.09-.81,2.49,2.49,0,0,0,.09-.81,6.81,6.81,0,0,0-.09-1.35,4.56,4.56,0,0,1-.18-1.17,17.48,17.48,0,0,1,.18-2.16,15.25,15.25,0,0,0,.09-2.07,5.31,5.31,0,0,0-.18-1.26,5.31,5.31,0,0,1-.18-1.26v-1.89a12,12,0,0,1,.27-2.52,12,12,0,0,0,.27-2.52,4.75,4.75,0,0,0-.09-1.17c-.09-.36-.09-.72-.18-1.17a47.58,47.58,0,0,1-.54-7.2,1.74,1.74,0,0,1,.27-.9,3.24,3.24,0,0,0,.18-1v-2a1.58,1.58,0,0,0-.54-1.35,3.32,3.32,0,0,0-1.26-.63,10,10,0,0,0-1.71-.18h-1.53c-1,0-1.53.09-1.71.27s-.36.81-.36,1.71a2.49,2.49,0,0,0,.09.81v.81a2.63,2.63,0,0,1-.18.81,2.63,2.63,0,0,0-.18.81,13.29,13.29,0,0,0,.09,1.89,13.29,13.29,0,0,1,.09,1.89,23.58,23.58,0,0,1-.09,2.52c-.09.9-.09,1.8-.09,2.61v18.54a22.07,22.07,0,0,1-.18,2.43,11.17,11.17,0,0,0-.27,2.43,2.49,2.49,0,0,0,.27,1.17,4.56,4.56,0,0,1,.18,1.17v.9a4,4,0,0,0-.09,1,4.56,4.56,0,0,0,.18,1.17,6.08,6.08,0,0,1,.18,1.26,6.85,6.85,0,0,1-.27,1.89,7.5,7.5,0,0,0-.27,2,2,2,0,0,0,.09.72,2,2,0,0,1,.09.72v.54a.76.76,0,0,1-.54.18,9.07,9.07,0,0,1-2.25-.27,10.38,10.38,0,0,0-2.34-.27c-1,0-1.89,0-2.79-.09H316.3c-.09-.09-.27-.09-.54-.09a19.07,19.07,0,0,0-4,.45,33,33,0,0,0-4,1.17,5.94,5.94,0,0,1-1,.36,8,8,0,0,0-.9.45c-.45.27-.9.72-1.53,1.17s-1.08,1-1.44,1.26a5.49,5.49,0,0,0-1.08,1.44,14.29,14.29,0,0,0-.63,1.8,15.51,15.51,0,0,0-.63,1.89,7.5,7.5,0,0,0-.27,2,6.24,6.24,0,0,0,.27,1.8c.18.63.36,1.17.54,1.71a9.12,9.12,0,0,0,2.43,3.6,12.22,12.22,0,0,0,3.51,2.43,13.84,13.84,0,0,0,4.23,1.44,24.67,24.67,0,0,0,4.32.36H317a12.33,12.33,0,0,0,1.44-.18l1.89-.54c.63-.27,1.26-.45,1.89-.72s1-.45,1.26-.63.54-.27.81-.36l.9-.27a14.28,14.28,0,0,0,7.56-8.91,1.66,1.66,0,0,1,1.8-1.08,6.39,6.39,0,0,1,2.52.63c1,.45,2.07,1,3.15,1.53s2.16,1.17,3.15,1.8a14.22,14.22,0,0,0,2.52,1.35,13.73,13.73,0,0,1,2.61,1.26c.45.27,1.08.72,1.8,1.26a22.48,22.48,0,0,0,2.16,1.62,20,20,0,0,0,2.07,1.35,2.85,2.85,0,0,0,1.62.63,2.15,2.15,0,0,0,1.53-.9,9.05,9.05,0,0,0,1.08-1.26,1.56,1.56,0,0,1,.54-1,1.78,1.78,0,0,0,.54-1.26,3.1,3.1,0,0,0-.72-1.62A14.69,14.69,0,0,0,357.34,323.26Zm-31.68-2.79a11.89,11.89,0,0,1-2,2.34,16.74,16.74,0,0,1-2.52,1.89,10.26,10.26,0,0,1-2.34,1.08c-.45.09-.9.18-1.26.27a7,7,0,0,1-1.35.18h-.9a5.94,5.94,0,0,1-1.26-.09,6.81,6.81,0,0,1-1.35-.09,5.07,5.07,0,0,1-.9-.18,12.75,12.75,0,0,1-1.62-.72,6.91,6.91,0,0,1-1.62-.9,4.24,4.24,0,0,1-1.17-1.35,3.45,3.45,0,0,1-.45-1.71,3.9,3.9,0,0,1,1.62-3.33,18.72,18.72,0,0,1,3.42-2,4.42,4.42,0,0,1,1.17-.27l2-.27c.72-.09,1.44-.09,2.07-.18a8.9,8.9,0,0,1,1.35-.09,13.87,13.87,0,0,1,1.71.18l1.89.54a7.42,7.42,0,0,0,1.71.54,4.52,4.52,0,0,0,1.26.27,2.58,2.58,0,0,1,1.08.18,2.14,2.14,0,0,1,.27,1.35A4.09,4.09,0,0,1,325.66,320.47Z"/><path class="cls-6" d="M731.47,287.26c-.27-.09-.45-.27-.72-.36a.33.33,0,0,1-.27-.09c-.09-.09-.27-.09-.36-.18-.9-.45-1.8-.9-2.7-1.26a15.23,15.23,0,0,1-2.79-1.17,3.65,3.65,0,0,1-.81-.45c-.27-.18-.63-.36-.9-.54a7.55,7.55,0,0,1-2.7-1.35c-1-.63-1.8-1.26-2.52-1.71l-.54-.27a4.39,4.39,0,0,1-.63-.27,5.37,5.37,0,0,1-1.35-.81,12.88,12.88,0,0,0-1.35-1,20.9,20.9,0,0,1-2.7-2c-.27-.27-.45-.54-.72-.63a2.4,2.4,0,0,1-.9-.54c-.63-.63-1.26-1.17-1.89-1.71a11.71,11.71,0,0,1-2.07-1.62c-.27-.27-.54-.63-.81-.9s-.63-.54-.9-.81a22.47,22.47,0,0,1-2.07-2.07c-.72-.72-1.44-1.44-2.07-2.16a29,29,0,0,1-2.52-3.33,12.88,12.88,0,0,0-2.79-3,7.1,7.1,0,0,0-2.7-1.08c-1-.09-1.89-.18-2.88-.18h-.9a3.2,3.2,0,0,0-.9.18,2,2,0,0,0-1.17.81c-.36.54-.63,1-.81,1.26l-.09.09c-.27.54-.63,1.08-.9,1.62s-.72,1.08-1.08,1.53a5.49,5.49,0,0,1-1.08,1.44,6.29,6.29,0,0,0-1.17,1.53,19.15,19.15,0,0,1-2.07,2.88c-.9,1-1.8,1.8-2.61,2.61s-1.62,1.62-2.43,2.52a15.25,15.25,0,0,1-2.52,2.34q-2.83,2.3-5.4,4.32a41.2,41.2,0,0,1-5.85,3.87l-3.24,1.89c-1.08.63-2.16,1.26-3.33,1.89a4.24,4.24,0,0,1-1.35.54,4.24,4.24,0,0,0-1.35.54l-.27.27c-.09.09-.18.27-.27.36a2,2,0,0,0,.54,1.08,10.73,10.73,0,0,0,1.35,1.62c.45.54,1,1,1.44,1.44s.72.81.9,1c.18-.09.45-.18.81-.36a4.39,4.39,0,0,0,1.17-.54l1.08-.54a8.3,8.3,0,0,1,.72-.45c.18-.09.45-.18.81-.36a8.3,8.3,0,0,1,.72-.45c.81-.45,1.53-.9,2.34-1.26s1.44-.81,2.16-1.26c1-.63,2-1.44,3.15-2.25a12.69,12.69,0,0,1,3.15-1.8c.09,0,.09.09.09.18a6.81,6.81,0,0,1-.09,1.35,7,7,0,0,0-.18,1.35.33.33,0,0,0,.09.27v.36c0,.27.27.54.9.63a11.08,11.08,0,0,0,1.8.18,13.29,13.29,0,0,0,1.89.09h2.34a3,3,0,0,0,1.26-.09,5.74,5.74,0,0,0,.63-.18h.63a4.75,4.75,0,0,1,1.17.09,4.56,4.56,0,0,0,1.17.18c1.44,0,2.88,0,4.32-.09H695c1.44.09,2.88.09,4.32.09a6.08,6.08,0,0,0,1.26-.18,5.94,5.94,0,0,1,1.26-.09,6.81,6.81,0,0,1,1.35.09,7,7,0,0,0,1.35.18,13.43,13.43,0,0,0,1.89-.18,13.29,13.29,0,0,1,1.89-.09,2.49,2.49,0,0,1,.81.09,2.49,2.49,0,0,0,.81.09c.81,0,1.26-.45,1.26-1.44v-2.43a2.12,2.12,0,0,0,.18-.72v-.63a.9.9,0,0,0-.36-.45,3.9,3.9,0,0,0-1-.36c-.45-.09-1-.09-1.53-.18a9.78,9.78,0,0,1-1.62-.09h-1.17a23.58,23.58,0,0,0-2.52.09c-.9.09-1.8.18-2.61.18-1.26,0-2.52-.09-3.78-.18s-2.61-.09-3.87-.09a1.33,1.33,0,0,0-.63.09,1.7,1.7,0,0,1-.72.18c-1.53,0-3.06-.09-4.59-.18s-3.15-.09-4.68-.09a7.88,7.88,0,0,0-1.44.18,7.88,7.88,0,0,1-1.44.18H676a12.08,12.08,0,0,1-1.89-.09c-.63,0-.9,0-1-.09-.27,0-.45,0-.54-.09l.09-.27a1.61,1.61,0,0,0,.63-.45,2,2,0,0,1,.45-.36c.81-.63,1.62-1.17,2.34-1.8a15,15,0,0,0,2.07-2.07,5.71,5.71,0,0,1,1.08-.9,5.16,5.16,0,0,0,1-1,14.32,14.32,0,0,0,1.8-2.16A9.4,9.4,0,0,1,684,273.4a3.91,3.91,0,0,0,.54-.63,2.39,2.39,0,0,1,.45-.54c.54-.63,1.08-1.35,1.53-2s1-1.35,1.44-2c.27-.45.63-1,.9-1.53a13.73,13.73,0,0,1,1-1.44,2,2,0,0,0,.27-.45l.27-.27a3,3,0,0,1,.72.54,7.1,7.1,0,0,1,1.08,1.35,7.51,7.51,0,0,0,1.08,1.44,12.13,12.13,0,0,0,1.35,1.53,25.56,25.56,0,0,0,2.16,2.34c.72.81,1.44,1.62,2.07,2.25a7.09,7.09,0,0,0,1.26,1.08,6.92,6.92,0,0,0,1.62,1.62c.63.45,1.26,1,1.89,1.44s1.17,1,1.71,1.44a9.41,9.41,0,0,0,1.71,1.53l1.62,1.08a18.25,18.25,0,0,1,1.62,1.17,5.75,5.75,0,0,1,1.17.9c.54.45.9.72,1.17.72a7.88,7.88,0,0,1,1.08.63c.45.27,1,.63,1.53,1s1.08.72,1.53,1.08.72.63,1,.81a9.6,9.6,0,0,0,2.61,1.44,19.83,19.83,0,0,1,2.7,1.26,10.75,10.75,0,0,1,2,1.08,10.75,10.75,0,0,0,2,1.08,1,1,0,0,0,.45.09c.09.09.18.09.36.09a.49.49,0,0,0,.54-.36c.18-.27.45-.63.81-1.17s.72-1,1.17-1.53.72-1.08,1-1.53a2.49,2.49,0,0,0,.45-1.08A.7.7,0,0,0,731.47,287.26ZM629.59,303.1c-.09-.45-.27-1-.36-1.44a3.32,3.32,0,0,0-.63-1.26,9.56,9.56,0,0,1-.81-1,2.33,2.33,0,0,1-.63-1c-.09-.09-.09-.27-.18-.36s-.18-.27-.27-.36a20.22,20.22,0,0,0-4-3.87,30.21,30.21,0,0,0-5-2.79,31,31,0,0,0-5.58-1.8,30,30,0,0,0-5.58-.54,17.48,17.48,0,0,0-2,.09c-.9.09-1.8.27-2.7.45a18.51,18.51,0,0,0-2.61.63,6.9,6.9,0,0,0-1.8.81,1.24,1.24,0,0,0-.45.72,4.64,4.64,0,0,0-.18,1,3.42,3.42,0,0,0,.54,2,1.68,1.68,0,0,0,1.71.9,12.2,12.2,0,0,0,1.8-.18,10.33,10.33,0,0,1,1.71-.09,2.49,2.49,0,0,1,.81.09,1.75,1.75,0,0,0,.72.09,14.58,14.58,0,0,1,2,.09,14.58,14.58,0,0,0,2,.09c.36,0,.63,0,.72-.09a17.88,17.88,0,0,1,3.42.45,16.37,16.37,0,0,1,3.15,1,12.06,12.06,0,0,1,2.43,1.53c.81.72,1.62,1.53,2.43,2.34a18.82,18.82,0,0,1,2.07,2.61,10.53,10.53,0,0,1,1.08,2.7,8.85,8.85,0,0,0,.45,1.44,4.2,4.2,0,0,1,.27,1.53,9.36,9.36,0,0,1-.18,1.35c-.18.63-.36,1.17-.54,1.8s-.36,1.26-.54,1.8-.45,1.08-.54,1.35c0,0-.18.27-.54.72s-.81,1-1.26,1.53a12.85,12.85,0,0,1-1.35,1.62c-.45.54-.63.81-.72.9a6.07,6.07,0,0,1-2.43,1.53,17.5,17.5,0,0,0-2.7,1.17l-1.08.54a2.49,2.49,0,0,1-1.17.27,2.77,2.77,0,0,1-2-1.08,14.74,14.74,0,0,1-2.07-2.52c-.63-.9-1.26-1.8-1.89-2.79a16.71,16.71,0,0,0-1.62-2.07c-.63-.63-1.44-1.35-2.25-2.07s-1.8-1.26-2.61-1.71a9.19,9.19,0,0,0-2.61-1q-1.49-.27-2.7-.54a3.2,3.2,0,0,1-.81-.36,3.24,3.24,0,0,0-1-.18c-.36,0-.9.09-1.71.18a23,23,0,0,0-2.43.45,17.76,17.76,0,0,0-2.34.63,4,4,0,0,0-1.44.81c-.45.54-.81,1.08-1.26,1.53s-.81,1.08-1.26,1.53c-.27.45-.63.9-.9,1.44a3.43,3.43,0,0,0-.54,1.71,13.29,13.29,0,0,0,.09,1.89,14,14,0,0,0,.36,1.89,4.78,4.78,0,0,0,1.08,2.25,12.71,12.71,0,0,0,4.41,3.69,40.67,40.67,0,0,0,5.4,2,10.88,10.88,0,0,1,1.62.45,7.6,7.6,0,0,0,1.53.45,24.67,24.67,0,0,0,2.52.45c.81.09,1.62.27,2.43.36a2.8,2.8,0,0,0,1,.09.54.54,0,0,0,.36-.09.54.54,0,0,1,.36-.09,3.2,3.2,0,0,1,.9.18,3.06,3.06,0,0,0,.9.09,7.92,7.92,0,0,0,1.26-.09c.54-.09,1.08-.09,1.71-.18s1.08-.27,1.62-.36,1-.09,1.26-.18a14.87,14.87,0,0,1,3.42-.45,8.43,8.43,0,0,0,3.33-.63,2.79,2.79,0,0,0,1.17-.54,3.11,3.11,0,0,1,1.08-.63c.63-.27,1.26-.63,2.07-1a5.76,5.76,0,0,0,1.8-1.26,7.89,7.89,0,0,1,1.26-.72,7.69,7.69,0,0,0,1.44-1,12.51,12.51,0,0,0,2.16-2.79c.72-1.17,1.35-2.16,1.8-3a5.82,5.82,0,0,1,.72-.81,4.4,4.4,0,0,0,.81-1.35,4.8,4.8,0,0,0,.36-1,17.5,17.5,0,0,1,.45-1.8,16.23,16.23,0,0,0,.45-1.71c.09-.45.18-.81.18-.9a17.67,17.67,0,0,0-.36-3.87C630.31,305.62,630,304.36,629.59,303.1Zm-27,21.24c0,.09-.18.18-.45.27s-.63.18-1,.27a4.38,4.38,0,0,1-1.08.09,2.9,2.9,0,0,1-.72.09h-2.61a7.13,7.13,0,0,1-2.16-.45c-.81-.27-1.53-.45-2.16-.63a15.71,15.71,0,0,1-3-1.17,5.52,5.52,0,0,1-2.16-2.34,9.08,9.08,0,0,1-.63-1.35,3.61,3.61,0,0,1-.27-1.35,1.83,1.83,0,0,1,.54-1.35,6.39,6.39,0,0,1,1.26-.9,4.3,4.3,0,0,1,1.62-.54,8.24,8.24,0,0,1,1.44-.09,10.56,10.56,0,0,1,2.7.45,11.81,11.81,0,0,1,4.5,2.34,12.09,12.09,0,0,1,2.88,4.14,5.5,5.5,0,0,0,.63,1.26c.18.36.36.72.63,1.17Zm-325.8-18.27a18.84,18.84,0,0,1,.09-2.16,14.93,14.93,0,0,0-.18-2.16c-.09-.27-.18-.63-.27-1a4.38,4.38,0,0,1-.09-1.08,4,4,0,0,1,.09-1v-1a13.43,13.43,0,0,0-.18-1.89,13.16,13.16,0,0,1-.45-1.8c0-.09-.09-.36-.18-.81s-.18-.81-.27-1.26-.18-.81-.27-1.17-.18-.54-.18-.63V290c0-.18,0-.27-.09-.36a4.72,4.72,0,0,0-.81-2.07c-.54-.9-.9-1.62-1.17-2.07a14.75,14.75,0,0,0-2.16-2.88,17.25,17.25,0,0,0-3-1.89,13.82,13.82,0,0,0-3.51-1.53,21.76,21.76,0,0,0-3.78-.27,17.57,17.57,0,0,0-2.07.18,1.26,1.26,0,0,0-1.17,1.44,3.37,3.37,0,0,0,.09,1,4.38,4.38,0,0,1,.09,1.08,3.38,3.38,0,0,0,.09.9,2.78,2.78,0,0,1-.18,1,2.29,2.29,0,0,0-.18.63.54.54,0,0,0,.36.09.33.33,0,0,1,.27.09h1a3.06,3.06,0,0,0,.9.09,2,2,0,0,0,.81-.09,1.53,1.53,0,0,1,.9,0c.36.09.72.27,1.17.36a10.09,10.09,0,0,0,1.17.45,5.31,5.31,0,0,0,.72.36,1.39,1.39,0,0,1,.54.27c.27.27.54.45.81.72s.45.54.72.81a4.5,4.5,0,0,1,.45.63,9.82,9.82,0,0,1,.54,1c.09.45.27.81.36,1.17s.36.63.45.81a3.91,3.91,0,0,0,.36.63,3.91,3.91,0,0,1,.36.63,11.74,11.74,0,0,1,.27,1.17c.09.63.27,1.53.45,2.7s.18,2.25.18,2.88v.72c0,.36-.27.63-.72.72-.18.09-.54.18-1,.36s-1.08.36-1.71.54-1.17.36-1.62.45-.9.18-1.08.18a.33.33,0,0,1-.27-.09h-.36a7.48,7.48,0,0,0-1.17.18,7.6,7.6,0,0,0-1.53.45,5.5,5.5,0,0,0-1.26.63,1.13,1.13,0,0,0-.63.9.67.67,0,0,0,.09.45,2.48,2.48,0,0,0,.63.81,6.31,6.31,0,0,1,.72.9,8.22,8.22,0,0,1,1.17,2c0,.09.09.18.27.18s.27-.09.63-.18.63-.18,1.08-.36.81-.27,1.17-.36.63-.18.72-.18a17.76,17.76,0,0,1,2.34-.63,10.38,10.38,0,0,1,2.34-.27,5.61,5.61,0,0,0,.63,2.07c.27.36.9.54,2,.54H275a2.63,2.63,0,0,1,.81-.18,1.33,1.33,0,0,0,.63-.09.74.74,0,0,0,.45-.45,2.58,2.58,0,0,0,.18-1.08A4.38,4.38,0,0,0,277,307,3.2,3.2,0,0,1,276.79,306.07Zm-91.8-16c-.27-.27-.63-.54-.9-.81s-.72-.45-1.08-.72c-.54-.27-1.35-.72-2.43-1.26s-2.16-1.08-3.33-1.62-2.34-1-3.42-1.44a9.51,9.51,0,0,0-2.61-.54,13,13,0,0,0-1.71-.54c-.72-.09-1.44-.27-2.16-.36s-1.53-.09-2.25-.18a16.07,16.07,0,0,0-1.89-.09h-1.35c-.72.09-1.44.09-2.16.18l-2,.27c-.63.09-.9.27-1,.54a4,4,0,0,0-.18.9v1.89a1.58,1.58,0,0,0,.54,1.35,2.38,2.38,0,0,0,1.26.63,7.93,7.93,0,0,0,1.53.18H166a8.09,8.09,0,0,1,1.08.27c.54.18.81.36.81.45s-.27.27-.81.45a4.8,4.8,0,0,0-1,.36,20.84,20.84,0,0,0-2,.72,6,6,0,0,0-1.53,1.53,21.83,21.83,0,0,0-1.26,1.8c-.45.81-.9,1.62-1.17,2.25a9.18,9.18,0,0,0-.81,2,18,18,0,0,0-.36,2.16,22.29,22.29,0,0,0-.18,2.61,4.75,4.75,0,0,0,.09,1.17v1.17a1.33,1.33,0,0,1-.09.63,1.33,1.33,0,0,0-.09.63,21.93,21.93,0,0,0,.09,2.43,21.93,21.93,0,0,1,.09,2.43v2.16c-.09.27-.18.36-.27.36a.68.68,0,0,1-.36-.18,2,2,0,0,0-.45-.27,1.33,1.33,0,0,1-.63-.09,14.77,14.77,0,0,0-2.07-.18H153a7.74,7.74,0,0,1-1.44-.09,9.26,9.26,0,0,0-1.53-.09,5.16,5.16,0,0,1-1.08-.09,3.36,3.36,0,0,0-1.08.18c-1,.27-2.25.63-3.69,1.08a11,11,0,0,0-3.42,1.62,3.16,3.16,0,0,1-.72.45,5,5,0,0,0-.81.63,7,7,0,0,0-1.44,2.16,14.35,14.35,0,0,0-1.08,2.43c-.09.27-.18.54-.27.9a6.65,6.65,0,0,0-.18,1.08,7.05,7.05,0,0,0,1.17,3.69A8.23,8.23,0,0,0,140,330.1a9.54,9.54,0,0,0,1.89,1c.54.27,1.17.45,1.89.72s1.71.45,2.61.72a12,12,0,0,0,2.52.27,16.07,16.07,0,0,0,1.89-.09,4.36,4.36,0,0,0,1.8-.45,2.25,2.25,0,0,1,1.26-.36,6.67,6.67,0,0,0,4.14-1.26c1-.9,2.16-1.8,3.33-2.7.27-.18.45-.36.72-.54a1.89,1.89,0,0,0,.72-.54,4.8,4.8,0,0,0,.63-.9c.27-.36.54-.81.81-1.26a10,10,0,0,0,.63-1.44,2.93,2.93,0,0,0,.27-.9c0-.27.18-.54.63-.72a4,4,0,0,1,.9-.18,5.68,5.68,0,0,1,2,.45,10.75,10.75,0,0,1,2,1.08l1.89,1.35c.63.45,1.08.9,1.53,1.17.27.18.63.45,1.08.72a8.92,8.92,0,0,0,1.53,1,12.88,12.88,0,0,0,1.35,1,4.38,4.38,0,0,1,.9.72c.36.27.72.63,1.17,1a2.21,2.21,0,0,0,1.44.54,1.94,1.94,0,0,0,1.17-.54,15.67,15.67,0,0,0,1.08-1.26,8.55,8.55,0,0,0,.9-1.53A2.42,2.42,0,0,0,185,326a1.88,1.88,0,0,0-.63-1.35c-.45-.45-.9-.9-1.44-1.35s-1.17-.81-1.71-1.17-1.08-.63-1.44-.81c-1-.63-1.89-1.17-2.7-1.8a11.58,11.58,0,0,0-3-1.62c-1-.36-1.89-.72-2.88-1.08s-1.89-.63-2.88-.9a2.15,2.15,0,0,0-.63-.27,3.33,3.33,0,0,1-1-.45,3.65,3.65,0,0,1-.81-.45.65.65,0,0,1-.36-.54,2,2,0,0,1,.09-.72v-.63a9.78,9.78,0,0,0-.09-1.62,8.23,8.23,0,0,1-.09-1.53,4,4,0,0,1,.09-1,3.06,3.06,0,0,0,.09-.9V306.7a1.53,1.53,0,0,1,0-.9c.09-.63.27-1.17.36-1.8a10.33,10.33,0,0,0,.09-1.71,13.29,13.29,0,0,0-.09-1.89,3.55,3.55,0,0,1,.36-1.89,3.65,3.65,0,0,1,.45-.81,3.65,3.65,0,0,1,.45-.81c.27-.45.63-.81.9-1.26a5.78,5.78,0,0,1,.9-1.17,7.84,7.84,0,0,1,2.88-1.8,11.18,11.18,0,0,1,3.33-.54,6.69,6.69,0,0,1,2.52.54,21.55,21.55,0,0,1,2.52,1.17c.81.45,1.44.81,2,1.17a3.64,3.64,0,0,0,1,.54.68.68,0,0,0,.36-.18c.09-.09.09-.27.18-.36a8.3,8.3,0,0,1,1.17-1.71,2.36,2.36,0,0,0,.81-1.71,2.66,2.66,0,0,0-.18-.9A4.06,4.06,0,0,0,185,290.05Zm-26.55,31a4.64,4.64,0,0,1-.18,1,8.77,8.77,0,0,0-.45,1,3.87,3.87,0,0,1-1.71,1.89,9.28,9.28,0,0,1-2.7,1.26,17.48,17.48,0,0,1-3,.63c-1,.09-1.89.18-2.61.18a5.25,5.25,0,0,1-1.8-.36,3.45,3.45,0,0,1-1.53-.72,2,2,0,0,1-.45-.72,3.65,3.65,0,0,1-.45-.81,4.78,4.78,0,0,1-.27-1,3.76,3.76,0,0,1-.27-.81,1.1,1.1,0,0,1,.36-.81,1.21,1.21,0,0,1,.63-.54,10.24,10.24,0,0,1,3.78-1.71,20.54,20.54,0,0,1,4.05-.36h4.23c.18,0,.27,0,.36.09a2.49,2.49,0,0,1,.81.09,1.3,1.3,0,0,0,.63.18.33.33,0,0,0,.27.09.28.28,0,0,1,.18.09,1.33,1.33,0,0,0,.09.63Zm-21.15-24.57a7.79,7.79,0,0,0,.63-1.53,4.58,4.58,0,0,1,.63-1.53c.63-1.17,1.26-2.34,1.89-3.69a12,12,0,0,0,1.17-3.87,20.36,20.36,0,0,1,.72-3.06,5.43,5.43,0,0,1,1.17-2.61q.13-.4.81-.54h.9a9.92,9.92,0,0,1,1.62.18,7.93,7.93,0,0,0,1.53.18,1.14,1.14,0,0,0,.54-.09.67.67,0,0,1,.45-.09h6.57c.45,0,.63-.18.63-.54v-.72a2,2,0,0,1-.09-.72,7,7,0,0,1,.18-1.35,6.81,6.81,0,0,0,.09-1.35,5.54,5.54,0,0,0-.09-1.17.83.83,0,0,0-.9-.54,8.54,8.54,0,0,0-1.8.18,7.88,7.88,0,0,1-1.44.18h-1.44c-.81,0-1.71,0-2.61-.09s-1.8-.09-2.61-.18-1.17-.18-1.26-.36v-.45a4.17,4.17,0,0,0,.36-1.89,2,2,0,0,1-.09-1.08c.09-.45.18-1,.27-1.53s.27-1.08.36-1.62a7.06,7.06,0,0,0,.18-1.26v-.9a1.25,1.25,0,0,1,0-.81l.27-1.08a4.38,4.38,0,0,0,.09-1.08v-.36a.54.54,0,0,1-.09-.36c-.09-.09-.09-.36-.09-.63a19.05,19.05,0,0,0-.09-2.7c-.09-.45-.9-.72-2.25-.72h-1.17a5.94,5.94,0,0,1-1.26.09,7.74,7.74,0,0,0-2.07.18c-.27.18-.36.81-.36,1.89s0,1.89.09,2.79.09,1.8.09,2.79a5.31,5.31,0,0,1-.18,1.26l-.27,1.35c-.09.63-.18,1.53-.27,2.52s-.36,2-.45,2.61a2,2,0,0,1-.45,1,1.63,1.63,0,0,1-1.26.45,7.74,7.74,0,0,1-1.44-.09,9.26,9.26,0,0,0-1.53-.09h-2.25a18.07,18.07,0,0,1-2.25.09,5.31,5.31,0,0,1-1.26-.18,5.31,5.31,0,0,0-1.26-.18,3.2,3.2,0,0,0-.9.18,4.64,4.64,0,0,1-1,.18,21.93,21.93,0,0,1-2.43-.09,23.58,23.58,0,0,0-2.52-.09,1.75,1.75,0,0,0-.72.09c-.9.09-1.44.45-1.53,1.26a22.46,22.46,0,0,0-.18,2.25v.81a2.49,2.49,0,0,0,.09.81,1.81,1.81,0,0,0,.36.72.6.6,0,0,0,.63.36h1.53a6.81,6.81,0,0,1,1.35.09,5.31,5.31,0,0,0,1.26.18h7.38a4.52,4.52,0,0,0,1.08-.18,4.38,4.38,0,0,1,1.08-.09,17.57,17.57,0,0,1,2.07.18,14.72,14.72,0,0,0,2,.18.7.7,0,0,1,.27.63,1.33,1.33,0,0,1-.09.63,1.33,1.33,0,0,0-.09.63,7.05,7.05,0,0,0-.45,1.26c-.18.45-.36.81-.54,1.26-.63,1.35-1.26,2.79-1.8,4.23a45,45,0,0,0-1.62,4.5,9.09,9.09,0,0,1-1.44,2.79,14.46,14.46,0,0,0-1.71,2.79l-.27.81-.27.81a19.8,19.8,0,0,1-1,2.43c-.54,1-1.08,1.89-1.71,2.88s-1.17,2-1.8,2.88a21.59,21.59,0,0,1-1.62,2.25l.27.36a12.28,12.28,0,0,1-1,1.8c-.45.72-.81,1.44-1.26,2.07a15.39,15.39,0,0,0-1.08,2.07,4.43,4.43,0,0,0-.45,1.62,1.58,1.58,0,0,0,.54,1.17,3,3,0,0,0,1.26,1.08,5,5,0,0,0,1.53.81,2.46,2.46,0,0,0,1.26.36,1.74,1.74,0,0,0,.9-.27,2.1,2.1,0,0,0,.63-.63,12.88,12.88,0,0,1,1-1.35,11.73,11.73,0,0,0,.9-1.35c.27-.63.63-1.35.9-2a20.3,20.3,0,0,1,1-2,8.42,8.42,0,0,1,1.26-1.71,7.49,7.49,0,0,0,1.17-1.62c.09-.27.36-.63.63-1.26a3.71,3.71,0,0,0,.36-1.35l.27-.54a2,2,0,0,0,.27-.45,17,17,0,0,0,.54-1.62,3.39,3.39,0,0,1,.81-1.35,9.2,9.2,0,0,0,1.17-1.53,5.91,5.91,0,0,0,.9-1.53c.09-.27.18-.63.27-1a2.63,2.63,0,0,1,.18-.81c.27-.54.63-1.08.9-1.62S137,297.07,137.29,296.44Zm115.56-6c0-.27,0-.54-.09-.63-.09-.45-.27-1-.36-1.62a7.79,7.79,0,0,0-.63-1.53,10.63,10.63,0,0,1-.54-1.17c-.18-.27-.36-.45-.45-.63a3.91,3.91,0,0,1-.54-.63,7.36,7.36,0,0,1-.72-.81,5.29,5.29,0,0,0-2.52-2,20.71,20.71,0,0,1-3.06-1.08,14.08,14.08,0,0,0-4.95-.9,6.81,6.81,0,0,0-1.35.09,5.94,5.94,0,0,1-1.26.09.6.6,0,0,1-.63-.36,3.75,3.75,0,0,1,.45-.9,4.71,4.71,0,0,0,.54-1.44l.27-1.35c.18-1,.36-2,.45-3s.18-1.89.18-2.88a1.33,1.33,0,0,0-.09-.63,1.3,1.3,0,0,1-.18-.63,4.56,4.56,0,0,1,.18-1.17,4.75,4.75,0,0,0,.09-1.17,2.49,2.49,0,0,0-.09-.81,1.75,1.75,0,0,1-.09-.72,6.81,6.81,0,0,1,.09-1.35v-1.35a2.21,2.21,0,0,0-.45-1.53,2.68,2.68,0,0,0-1.44-.54c-.45-.09-1-.27-1.44-.36a9.26,9.26,0,0,0-1.53-.09,3.22,3.22,0,0,0-1.89.45,2.26,2.26,0,0,0-.54,1.8,14.72,14.72,0,0,0,.18,2,17.34,17.34,0,0,1,.09,2.16,4.08,4.08,0,0,1-.27,1.44,4.2,4.2,0,0,0-.27,1.53c0,1.17,0,2.52-.09,4s-.27,2.79-.45,4a4.75,4.75,0,0,0-.09,1.17,2.25,2.25,0,0,1-.27,1.17c-.09.18-.36.27-.72.27a.4.4,0,0,1-.45.09h-.45a5.94,5.94,0,0,1-1.26-.09,5.94,5.94,0,0,0-1.26-.09,13.29,13.29,0,0,0-1.89.09,14.72,14.72,0,0,1-2,.18,13.43,13.43,0,0,1-1.89-.18,14.58,14.58,0,0,0-2-.09h-2c-.63.09-1.35.09-2,.18-.9.09-1.8.18-2.7.18h-2.7a.68.68,0,0,0-.36.09,1.2,1.2,0,0,1-.45.09.6.6,0,0,0-.36.63,3.38,3.38,0,0,0-.09.9,7,7,0,0,0,.18,1.35,7.74,7.74,0,0,1,.09,1.44.54.54,0,0,0,.09.36.68.68,0,0,1-.18.36V285a.43.43,0,0,0,.45.45,2,2,0,0,0,.72.09,5.15,5.15,0,0,1,1.71,0,8.67,8.67,0,0,0,1.8.27,1.92,1.92,0,0,0,1.08-.27,3.36,3.36,0,0,1,1.08-.18,7.74,7.74,0,0,1,1.44.09,7,7,0,0,0,1.35.18c1,0,2.07,0,3.06-.09h3a10,10,0,0,0,1.53-.18,10,10,0,0,1,1.53-.18c.27,0,.54,0,.63.09a3.1,3.1,0,0,1,.81.09.66.66,0,0,1,.54.63,2.39,2.39,0,0,1-.45,1.26,2.68,2.68,0,0,0-.45,1.35c0,.09,0,.09.09.09v.18c-.09.36-.18.72-.27,1.17s-.18.81-.27,1.17a5.79,5.79,0,0,1-.9,2.16c-.45.72-.81,1.44-1.17,2.16s-.45,1-.54,1.26a6.08,6.08,0,0,1-.45,1.53,16.82,16.82,0,0,1-1.08,2.25c-.45.81-.81,1.53-1.17,2.25a18.11,18.11,0,0,0-.9,1.62,1.21,1.21,0,0,1-.54.63l-.63.63a12.4,12.4,0,0,0-1.08,1.53q-.94,1.49-2.16,3.24c-.81,1.17-1.53,2.34-2.16,3.33s-1,1.62-1.08,1.71a5,5,0,0,1-1.35,1.8,14.94,14.94,0,0,0-1.71,1.62,32,32,0,0,0-2.07,2.79,15.8,15.8,0,0,1-2.16,2.7,2.65,2.65,0,0,1-.72.72l-1.08,1.08-1,1a1.85,1.85,0,0,0-.45.81c0,.27.27.63.9,1a13.06,13.06,0,0,0,2,1.08c.81.36,1.53.63,2.25.9a4.06,4.06,0,0,0,1.44.36c.18,0,.45-.18.81-.63s.72-1,1.17-1.62a18.25,18.25,0,0,0,1.17-1.62,8,8,0,0,1,.81-1.08,17.28,17.28,0,0,1,1.35-1.26A7.83,7.83,0,0,0,215,324c1.35-1.8,2.7-3.6,4-5.49s2.43-3.78,3.51-5.76c.36-.63.81-1.35,1.26-2s.9-1.35,1.35-2l1.35-2.43c.45-.81.9-1.53,1.35-2.25.27-.45.63-.81.9-1.26l.81-1.35a9.75,9.75,0,0,0,.72-1.71,15,15,0,0,1,.72-1.8l.9-1.89a2.63,2.63,0,0,0,.18-.81,2.63,2.63,0,0,1,.18-.81,8.77,8.77,0,0,1,.45-1c.09-.27.27-.63.36-.9a8.88,8.88,0,0,0,.9-2.43,24.67,24.67,0,0,1,.45-2.52,9.34,9.34,0,0,0,.36-1.17,2.29,2.29,0,0,1,.45-1.17.49.49,0,0,1,.54-.36.54.54,0,0,1,.36.09c.09.09.27.18.36.27a3.36,3.36,0,0,0,1.08.18c.45.09.81.09,1.08.18,1.17.18,2.34.45,3.51.72a4.43,4.43,0,0,1,2.7,2.25,4,4,0,0,1,.45,1.35c.09.54.18,1.08.27,1.53.09.63.27,1.26.36,1.8a13.43,13.43,0,0,1,.18,1.89,14.72,14.72,0,0,1-.18,2c-.18.72-.36,1.44-.45,2.07a9.24,9.24,0,0,0-.09,2.25,5.9,5.9,0,0,1-.45,2.25,3.33,3.33,0,0,1-.45,1,5.51,5.51,0,0,0-.45,1.08,2.12,2.12,0,0,0-.18.72,2.12,2.12,0,0,1-.18.72c-.27.63-.63,1.26-.9,1.89a5.87,5.87,0,0,0-.72,2,9.92,9.92,0,0,0-.18,1.62l-.27,1.62a8.66,8.66,0,0,1-.81,1.8c-.45.81-1,1.71-1.53,2.52s-1.17,1.71-1.71,2.34-1,1.17-1.35,1.26a2,2,0,0,1-1.53.63,5.09,5.09,0,0,1-2.52-.72,14.07,14.07,0,0,1-2.25-1.53c-.63-.54-1.26-1.08-1.71-1.53a2.63,2.63,0,0,0-1.26-.72,2.54,2.54,0,0,0-1.35.36,11.73,11.73,0,0,0-1.35.9,4,4,0,0,0-1,1.17,2.68,2.68,0,0,0-.45,1.35,3.59,3.59,0,0,0,.81,2.16,7.78,7.78,0,0,0,1.89,2,14.15,14.15,0,0,0,2.34,1.71,18.29,18.29,0,0,0,2,1.17,10.84,10.84,0,0,0,2.07.54,11.76,11.76,0,0,0,2.07.27,10.33,10.33,0,0,0,4.5-1,12.7,12.7,0,0,0,3.6-2.61,19.11,19.11,0,0,0,3-3.51,45.49,45.49,0,0,0,2.25-4,6.86,6.86,0,0,0,.54-1.8,7.52,7.52,0,0,1,.45-1.8,2.13,2.13,0,0,1,.54-.81,2,2,0,0,0,.45-.72c.09-.27.27-.54.36-.81l.27-.81c.09-.18.18-.54.45-1.17a5.91,5.91,0,0,0,.27-1.17v-.9a3.2,3.2,0,0,1,.18-.9c.27-.81.45-1.53.72-2.34s.54-1.53.81-2.34a12.72,12.72,0,0,0,.72-3.51c.09-1.35.09-2.61.09-3.6a3.37,3.37,0,0,0-.09-1,3.37,3.37,0,0,1-.09-1,5.94,5.94,0,0,1,.09-1.26,4.75,4.75,0,0,0,.09-1.17v-.36a.54.54,0,0,1-.09-.36C252.85,291,252.85,290.77,252.85,290.41Zm328.32,15.21c.45-.45.81-1,1.26-1.44s.81-.9,1.26-1.35c1-1.26,2-2.52,3-3.87s2-2.61,3-3.87a7.36,7.36,0,0,0,1.08-1.8,5.34,5.34,0,0,1,1.17-1.62l.81-.81a3.91,3.91,0,0,0,.54-.63,3.91,3.91,0,0,0,.54-.63c.18-.27.36-.54.63-1a3.43,3.43,0,0,1,.54-.45,1.09,1.09,0,0,0,.63-.63,8.14,8.14,0,0,1,2.16-2.61,11.11,11.11,0,0,0,2.16-2.52c.45-.72,1-1.44,1.53-2.16l1.35-2.16a4.71,4.71,0,0,1,1.08-1.53,1.72,1.72,0,0,0,.81-.81,4.09,4.09,0,0,1,.63-.81,2.39,2.39,0,0,1,.45-.54,2.39,2.39,0,0,0,.45-.54,1.93,1.93,0,0,0,.36-.63,5.34,5.34,0,0,1,.36-.72,3.24,3.24,0,0,1,.72-1.08,7.87,7.87,0,0,0,.72-.9,4.77,4.77,0,0,1,1.44-1.53,3.78,3.78,0,0,1,2-.45h1.8a10.33,10.33,0,0,0,1.71.09,20.48,20.48,0,0,0,2.34-.18,20.34,20.34,0,0,1,2.34-.09.54.54,0,0,1,.36.09.33.33,0,0,0,.27.09c.09,0,.09,0,.18-.09a3.06,3.06,0,0,0-.09-.9,2.49,2.49,0,0,1-.09-.81,9.92,9.92,0,0,1,.18-1.62,9.92,9.92,0,0,0,.18-1.62,3.2,3.2,0,0,0-.18-.9.68.68,0,0,0-.63-.45,19,19,0,0,0-2.34.18,19,19,0,0,1-2.34.18c-1.44,0-2.88-.09-4.32-.18s-2.88-.18-4.32-.18a7.74,7.74,0,0,0-1.44.09,7.88,7.88,0,0,1-1.44.18c-.27,0-.54,0-.63-.09s-.18,0-.18-.09h-.27a10.33,10.33,0,0,0-1.71.09,12.2,12.2,0,0,1-1.8.18,23.72,23.72,0,0,1-2.52-.18,23.72,23.72,0,0,0-2.52-.18h-2.25a20.34,20.34,0,0,0-2.34.09c-.54.09-1.08.09-1.62.18a11.48,11.48,0,0,1-1.71.09,8.54,8.54,0,0,1-1.8-.18,7.93,7.93,0,0,0-1.53-.18c-.27,0-.54,0-.63.09a5,5,0,0,0-1.53.27,1.2,1.2,0,0,0-.81,1.26c-.09.09-.09.27-.09.54a2.49,2.49,0,0,0,.09.81,3.06,3.06,0,0,1,.09.9,7.35,7.35,0,0,1-.09,1.26,1.23,1.23,0,0,0,.27,1.17h.27c0,.09.09.09.18.09a6.19,6.19,0,0,0,1.17-.18,4.38,4.38,0,0,1,1.08-.09,3.06,3.06,0,0,1,.9.09,3.2,3.2,0,0,0,.9.18H591a3.06,3.06,0,0,0,.9-.09,3.06,3.06,0,0,1,.9-.09,2.49,2.49,0,0,1,.81.09,2.49,2.49,0,0,0,.81.09,7.74,7.74,0,0,0,1.44-.09,7.74,7.74,0,0,1,1.44-.09h.9c.36.09.72.09,1.17.18s.81.18,1.17.27.45.27.45.45a1.2,1.2,0,0,1-.27.63c-.27.27-.54.63-.81.9a9.85,9.85,0,0,1-.9,1,3.93,3.93,0,0,0-.63.72,2,2,0,0,1-.27.45l-.27.54-1.35,1.8c-.27.45-.54.81-.72,1.17a13.17,13.17,0,0,1-.81,1.17c-1,1.17-2.07,2.25-3.06,3.42a35.06,35.06,0,0,0-2.79,3.6,15.12,15.12,0,0,1-1.62,1.89,9.54,9.54,0,0,0-1.44,1.71c-.27.45-.54,1-.81,1.44a12.6,12.6,0,0,1-.9,1.44,16.63,16.63,0,0,1-1.26,1.26c-.45.45-.9.81-1.35,1.26a8.75,8.75,0,0,0-1.89,2.43,20.11,20.11,0,0,1-1.8,2.7,2.13,2.13,0,0,0-.54.81,4.51,4.51,0,0,1-.63.72,14.94,14.94,0,0,0-1.17,1.26c-.45.45-.81.9-1.26,1.35-.27.27-.54.63-.9,1.08a3.41,3.41,0,0,0-.81,1.17,4.57,4.57,0,0,0-.18.81,1.56,1.56,0,0,0,.54,1,16.63,16.63,0,0,0,1.26,1.26,5.57,5.57,0,0,0,1.53,1,2.76,2.76,0,0,0,1.17.45c.27,0,.54-.18,1-.54s.72-.81,1.17-1.26a15.64,15.64,0,0,1,1.17-1.35A10,10,0,0,1,581.17,305.62Zm-31.95-31.77h-1a4.38,4.38,0,0,1-1.08.09,8.07,8.07,0,0,1-1.62-.18,9.78,9.78,0,0,0-1.62-.09c-.09-.09-.36-.09-.63-.09a3.2,3.2,0,0,0-.9.18,3.2,3.2,0,0,1-.9.18,2.49,2.49,0,0,1-.81-.09,2.49,2.49,0,0,0-.81-.09h-2.43a4.75,4.75,0,0,0-1.17.09,4.38,4.38,0,0,1-1.08.09,4.2,4.2,0,0,1-1.53-.27,7.93,7.93,0,0,0-1.53-.18,10,10,0,0,0-1.53.18,10,10,0,0,1-1.53.18h-5.4a6,6,0,0,1-3.42-.72c-.63-.45-.9-1.53-.9-3.24v-1.26a3.61,3.61,0,0,1,.27-1.35,5.31,5.31,0,0,0,.18-1.26,21.93,21.93,0,0,0-.09-2.43,19.57,19.57,0,0,1-.09-2.34,7.74,7.74,0,0,1,.09-1.44,6.81,6.81,0,0,0,.09-1.35,1.45,1.45,0,0,0-.27-1,2.41,2.41,0,0,0-1-.18h-1.35a6.81,6.81,0,0,1-1.35.09,10.26,10.26,0,0,0-2.25.18c-.36.09-.54.81-.54,2a4.38,4.38,0,0,0,.09,1.08v1.08a10.33,10.33,0,0,1-.09,1.71,10,10,0,0,0-.18,1.71,9.07,9.07,0,0,0,.27,2.25,9.07,9.07,0,0,1,.27,2.25,2.63,2.63,0,0,1-.18.81A3.59,3.59,0,0,0,513,272a1.76,1.76,0,0,1-.36,1.26,2.64,2.64,0,0,1-1.44.36,12.06,12.06,0,0,1-1.8.09l-1.8.27a4,4,0,0,1-.9.18,5.82,5.82,0,0,1-2-.27,9.92,9.92,0,0,0-1.62-.18h-4.77a1.33,1.33,0,0,0-.63.09,2,2,0,0,1-.72.09,3.37,3.37,0,0,1-1-.09h-1.08a3.37,3.37,0,0,0-1,.09,3.37,3.37,0,0,1-1,.09,4.52,4.52,0,0,1-1.08-.18,4.56,4.56,0,0,0-1.17-.18,17.34,17.34,0,0,0-2.16.09,17.48,17.48,0,0,1-2.16.18H474.7a3.1,3.1,0,0,1-.81-.09h-1.08a3.71,3.71,0,0,0-1.08.09.92.92,0,0,0-.54.45,2,2,0,0,0-.09.81,4.08,4.08,0,0,0,.27,1.44,10,10,0,0,1,.18,1.53.67.67,0,0,1-.09.45.54.54,0,0,1-.09.36,1,1,0,0,0-.09.45c0,.45.36.63,1.08.72a9.94,9.94,0,0,0,1.44.09,9.26,9.26,0,0,0,1.53-.09h1.53a12.06,12.06,0,0,1,1.8.09,10.33,10.33,0,0,0,1.71.09,1.33,1.33,0,0,0,.63-.09c.09-.09.27-.09.54-.09h.72a4.75,4.75,0,0,0,1.17.09h1.08c.27,0,.54,0,.63-.09h.54a5.94,5.94,0,0,1,1.26.09,4.75,4.75,0,0,0,1.17.09,4.38,4.38,0,0,0,1.08-.09,4,4,0,0,0,1-.09,19.18,19.18,0,0,1,4-.18c1.35.09,2.61.09,3.87.09H504c1.89.09,3.87.09,5.85.09a2.49,2.49,0,0,0,.81-.09,2.49,2.49,0,0,1,.81-.09,2.14,2.14,0,0,1,1.35.27,2,2,0,0,1,.27,1.26,21.93,21.93,0,0,1-.09,2.43,23.72,23.72,0,0,0-.18,2.52V287a.33.33,0,0,1,.09.27.33.33,0,0,0,.09.27v.27a.49.49,0,0,1-.36.54,2,2,0,0,1-.72.09,4.75,4.75,0,0,1-1.17-.09,4.75,4.75,0,0,0-1.17-.09h-1.08a3.24,3.24,0,0,0-1,.18,7.92,7.92,0,0,1-1.35.45,9,9,0,0,0-1.26.72,31.72,31.72,0,0,0-3.51,2.79,11.79,11.79,0,0,0-2.61,3.6,15,15,0,0,0-1,5.13v1.71a8.07,8.07,0,0,0,.18,1.62,12.63,12.63,0,0,0,2,4.86,8.15,8.15,0,0,0,3.87,3.33,5.51,5.51,0,0,1,1.08.45,1.81,1.81,0,0,0,1.17.36,2.39,2.39,0,0,0,1.26-.45,4,4,0,0,0,.9-1.17,7,7,0,0,0,.63-1.44,7.06,7.06,0,0,0,.18-1.26,1.68,1.68,0,0,0-.63-1.44,12.24,12.24,0,0,1-1.53-1.08,7.82,7.82,0,0,1-1.44-1.53,3.63,3.63,0,0,1-.72-2.34,14.28,14.28,0,0,1,.27-2.61,8.68,8.68,0,0,1,.9-2.7,9.16,9.16,0,0,1,1.62-2.07,3.85,3.85,0,0,1,2.52-.81,4.88,4.88,0,0,1,2.25.54,9.55,9.55,0,0,1,1.8,1.53,8.82,8.82,0,0,1,1.17,2,7.13,7.13,0,0,1,.45,2.25,2.49,2.49,0,0,1-.09.81,2.49,2.49,0,0,0-.09.81c-.09.09-.09.36-.09.63a2.63,2.63,0,0,0,.18.81,3.37,3.37,0,0,1,.09,1,16.16,16.16,0,0,1-.18,2,12.75,12.75,0,0,1-.63,2c-.18.54-.45,1.26-.81,2.07s-.81,1.8-1.26,2.7-.81,1.71-1.26,2.52a8.59,8.59,0,0,1-1.26,1.8l-3.78,3.78a2.16,2.16,0,0,1-1.08.63,5.1,5.1,0,0,0-1.17.72,19.77,19.77,0,0,1-2.52,1.62q-1.21.68-2.7,1.35a5.34,5.34,0,0,0-.72.36c-.27.09-.54.27-.81.36a3.61,3.61,0,0,1-1.35.27,2.25,2.25,0,0,0-1.26.36,6.75,6.75,0,0,1-1.62.72,6.85,6.85,0,0,1-1.89.27,7.13,7.13,0,0,0-2.25.45,2.65,2.65,0,0,1-.9.27c-.45.18-.72.36-.72.54s.09.27.36.54a2.13,2.13,0,0,1,.54.81c.18.45.45,1.17.72,2.07A6.15,6.15,0,0,0,490,335c.09.18.45.27.9.27a4.87,4.87,0,0,0,1.71-.27,6,6,0,0,1,1.53-.63l1.44-.27,1.44-.27a3.65,3.65,0,0,0,.81-.45,3.65,3.65,0,0,1,.81-.45,4.52,4.52,0,0,1,1.08-.18l1.08-.27c.45-.09.81-.27,1.17-.36a5.51,5.51,0,0,1,1.08-.45,12,12,0,0,0,2.52-1.44,19,19,0,0,1,2.43-1.62,4.16,4.16,0,0,0,1.53-.72c.63-.45,1.08-.72,1.35-.9a20.35,20.35,0,0,0,2.25-1.71,18,18,0,0,0,1.26-1.44c.36-.45.72-.9,1.17-1.44s.9-1.26,1.53-2.07c.27-.27.54-.63.81-.9a5,5,0,0,0,.63-.81,24.13,24.13,0,0,0,1.26-2.61,32.07,32.07,0,0,0,1.17-3.51c.36-1.17.72-2.34,1-3.51a12.38,12.38,0,0,0,.36-2.79,9.78,9.78,0,0,0-.09-1.62,9.78,9.78,0,0,1-.09-1.62v-.54c.18-.18.18-.72.09-1.53s-.36-1.62-.54-2.61-.45-1.89-.72-2.79-.54-1.44-.63-1.71a6.1,6.1,0,0,0-.54-.81,1.08,1.08,0,0,1-.36-.72,23.58,23.58,0,0,1,.09-2.52,23.58,23.58,0,0,0,.09-2.52,10,10,0,0,1,.18-1.71,10,10,0,0,0,.18-1.71,3.71,3.71,0,0,0-.36-1.35c.09-.27.09-.72.18-1.26s.27-.9.54-1c.09,0,.54,0,1.44-.09s1.8,0,2.88-.09h4.68a6.81,6.81,0,0,1,1.35.09,5.31,5.31,0,0,0,1.26.18,24.43,24.43,0,0,0,2.61-.09,24.43,24.43,0,0,1,2.61-.09h2.34a18.07,18.07,0,0,0,2.25.09,6.81,6.81,0,0,0,1.35-.09,6.81,6.81,0,0,1,1.35-.09,7.74,7.74,0,0,1,1.44.09,6.81,6.81,0,0,0,1.35.09,16.64,16.64,0,0,0,2.07-.09c.63-.09,1-.54,1-1.44v-.81a2.49,2.49,0,0,1-.09-.81,4,4,0,0,1,.09-1v-1.08l-.27-.81A1.1,1.1,0,0,0,549.22,273.85Zm177.84,29.43A6.38,6.38,0,0,0,727,302c-.09-.45-.18-.81-.27-1.17a.57.57,0,0,0-.54-.45H716c-1.44,0-2.88,0-4.23.09s-2.88.09-4.32.09c-.9,0-1.8,0-2.7-.09s-1.89-.09-2.79-.09a8.23,8.23,0,0,0-1.53.09,9.26,9.26,0,0,1-1.53.09H690a5.53,5.53,0,0,1-1.26-.09,6.81,6.81,0,0,0-1.35-.09c-.27,0-.45,0-.54.09a1.33,1.33,0,0,1-.63.09c-1.08,0-2.16,0-3.24-.09s-2.25-.09-3.33-.09c-.27,0-.45,0-.54.09a1.33,1.33,0,0,1-.63.09,5.53,5.53,0,0,1-1.26-.09,6.81,6.81,0,0,0-1.35-.09,14.58,14.58,0,0,0-2,.09,14.58,14.58,0,0,1-2,.09,2,2,0,0,1-.72-.09,2,2,0,0,0-.72-.09h-.63a1.33,1.33,0,0,1-.63.09h-.72a1.56,1.56,0,0,0-.9-.09,4.64,4.64,0,0,1-1,.18,1.33,1.33,0,0,1-.63-.09,2,2,0,0,0-.72-.09,1.33,1.33,0,0,0-.63.09,2.25,2.25,0,0,1-1.26,0,1.33,1.33,0,0,0-.63-.09h-2.07a17.34,17.34,0,0,1-2.16.09H658a1.16,1.16,0,0,0-.72-.18,4,4,0,0,1-.81.09c-1.17,0-1.71.63-1.71,2a8.23,8.23,0,0,1-.09,1.53,9.78,9.78,0,0,0-.09,1.62.86.86,0,0,0,.54.81,5.16,5.16,0,0,0,1.26.36,7,7,0,0,0,1.35.18h2.34a5.94,5.94,0,0,0,1.26-.09c.63-.09,1.08-.18,1.35-.18a5.94,5.94,0,0,1,1.26.09,6.08,6.08,0,0,0,1.26.18c.9,0,1.8-.09,2.7-.18a24.43,24.43,0,0,1,2.61-.09c.9,0,1.8,0,2.7.09a23.78,23.78,0,0,0,2.61.18,1.2,1.2,0,0,0,.45-.09h1.44q.27.13.27.27a3.67,3.67,0,0,1-.18.63,5.51,5.51,0,0,1-.45,1.08c-.18.45-.36.81-.54,1.17a5,5,0,0,1-.36.72c-.36.9-.9,2.07-1.53,3.6s-1.35,3.06-2.07,4.59a48.54,48.54,0,0,1-2.25,4.32,9.24,9.24,0,0,1-2.16,2.7,3.66,3.66,0,0,1-2.16.72,13.43,13.43,0,0,1-1.89-.18,5,5,0,0,0-2,.18,7,7,0,0,1-2,.27h-2.07A6.81,6.81,0,0,0,657,327a6.81,6.81,0,0,1-1.35.09.78.78,0,0,0-.27.54,3.71,3.71,0,0,0,.36,1.35c.27.72.54,1.44.81,2.25a13.55,13.55,0,0,0,1,2c.36.54.63.81.9.81h.45c.09.09.27.09.54.09a7,7,0,0,0,1.35-.18,7,7,0,0,1,1.35-.18.54.54,0,0,1,.36.09h.36a2.12,2.12,0,0,0,.72-.18h1.08a4.38,4.38,0,0,1,1.08-.09,6.05,6.05,0,0,0,1.62-.27,4,4,0,0,1,1.8-.36h1.35a9.56,9.56,0,0,0,1.26-.27h.45a1.17,1.17,0,0,0,.9,0,.67.67,0,0,1,.45-.09,20.34,20.34,0,0,0,2.34-.09,16.8,16.8,0,0,0,2.25-.36,3.43,3.43,0,0,1,1.35-.09,5.94,5.94,0,0,0,1.26-.09l1.8-.27a11.47,11.47,0,0,1,1.8-.09c.09-.09.36-.09.81-.18s.81-.09,1.26-.18a5.94,5.94,0,0,1,1.26-.09,3.1,3.1,0,0,1,.81-.09,20.88,20.88,0,0,0,2.16-.18c.81-.09,1.53-.27,2.16-.36l1.89-.27c.63-.09,1.17-.09,1.8-.18l1.44-.27c.45-.09,1-.09,1.44-.18s1-.09,1.62-.18a7.93,7.93,0,0,0,1.53-.18,7.93,7.93,0,0,1,1.53-.18,7.88,7.88,0,0,0,1.44-.18,5,5,0,0,1,1.53-.27h1.53a5.16,5.16,0,0,0,1.08-.09,9.34,9.34,0,0,0,1.08-.27,15.59,15.59,0,0,1,1.8-.36,16.07,16.07,0,0,1,1.89-.09c.27,0,.54,0,.63.09s.36.27.9.81,1,1.26,1.62,2,1.08,1.44,1.62,2.07a10.32,10.32,0,0,1,1,1.26,1.69,1.69,0,0,0,1.26.72,4.53,4.53,0,0,0,1.35-.45,9.53,9.53,0,0,0,1.8-1.08,12.85,12.85,0,0,0,1.62-1.35,1.87,1.87,0,0,0,.63-1.17,3.54,3.54,0,0,0-.18-.54,1.24,1.24,0,0,0-.27-.36c-.81-.81-1.62-1.71-2.43-2.52a30,30,0,0,1-2.25-2.52c-.45-.45-.81-1-1.26-1.44a9.63,9.63,0,0,1-1.26-1.44,7.52,7.52,0,0,0-1.71-1.62,7.52,7.52,0,0,1-1.71-1.62,1.38,1.38,0,0,1-.36-.54,5.22,5.22,0,0,0-.81-.9l-1.35-1.35c-.54-.45-1.08-.81-1.53-1.26a10,10,0,0,1-1-1,5.82,5.82,0,0,0-.81-.72c-.27-.18-.63-.36-.9-.54a5,5,0,0,1-.63-.81c-.27-.27-.54-.45-.81-.72a9.85,9.85,0,0,1-1-.9l-.9-.9h-.18a3.39,3.39,0,0,0-1.26.36,17.85,17.85,0,0,0-1.8,1,11.24,11.24,0,0,0-1.53,1.08c-.45.45-.72.72-.72,1,0,.09.09.27.36.54l.81.81a9.56,9.56,0,0,0,1,.81l.63.63a9.85,9.85,0,0,1,1,.9,9.56,9.56,0,0,1,.81,1,8.68,8.68,0,0,0,1.17,1c.54.54,1.08,1.08,1.71,1.62s1.08,1.17,1.53,1.71.72.9.72,1.17-.18.27-.63.36-.9.18-1.44.27-1.08.09-1.53.18a6,6,0,0,1-1,.09c-1.08.09-2.16.18-3.24.18l-3.15.27-5.22.54a33.93,33.93,0,0,1-5.22.36,6.81,6.81,0,0,0-1.35.09,6.08,6.08,0,0,1-1.26.18,1.33,1.33,0,0,1-.63.09h-.18l-.09-.09c-.09,0-.09,0-.18-.09l-1.44.27a7.88,7.88,0,0,1-1.44.18c-1,0-1.89,0-2.79.09s-1.89.18-2.88.18H676c.81-1.53,1.71-3.15,2.7-4.68s1.71-3.06,2.52-4.59c.09-.09.09-.27.18-.54a.67.67,0,0,1,.09-.45,7.22,7.22,0,0,0,1.35-2.43,11.81,11.81,0,0,1,1.17-2.79,3.72,3.72,0,0,0,.36-.81c.18-.36.36-.72.54-1.17a3.72,3.72,0,0,1,.63-1c.18-.27.36-.45.54-.45a5.94,5.94,0,0,0,1.26-.09,4.75,4.75,0,0,1,1.17-.09,23.58,23.58,0,0,1,2.52.09,21.93,21.93,0,0,0,2.43.09,7.74,7.74,0,0,0,1.44-.09,7.74,7.74,0,0,1,1.44-.09,13.29,13.29,0,0,1,1.89.09,13.43,13.43,0,0,0,1.89.18,7,7,0,0,0,1.35-.18,5.53,5.53,0,0,1,1.26-.09,7.74,7.74,0,0,1,1.44.09,7,7,0,0,0,1.35.18c1.17,0,2.34,0,3.51-.09h3.42c1.53,0,3,0,4.5.09s3,.09,4.5.09a6.46,6.46,0,0,0,1.17-.09,10.92,10.92,0,0,0,1.62-.09,7.93,7.93,0,0,0,1.53-.18c.45-.09.81-.18.9-.36a1.2,1.2,0,0,0,.27-.72,1,1,0,0,0,.18-.63,2.24,2.24,0,0,1-.09-.72Zm-289.17-36.9a9.85,9.85,0,0,1-.9-1l-1-1c-.36-.27-.54-.45-.63-.45h-.27a3.61,3.61,0,0,0-1.35.27,2.85,2.85,0,0,1-1.44.36,5.88,5.88,0,0,1-3.87-1.26,11.78,11.78,0,0,1-2.43-2.79c-.63-1-1.26-1.89-1.8-2.7a2.35,2.35,0,0,0-1.89-1.26,5.86,5.86,0,0,0-2.34.54,1.91,1.91,0,0,0-1.35,1.89,4.77,4.77,0,0,0,1.26,3,19.13,19.13,0,0,1,1.89,2.79v.45a7.71,7.71,0,0,0,1.71,1.71c.63.54,1.17,1.08,1.8,1.71v.18c0,.09,0,.09.09.09a1.4,1.4,0,0,1-.63,1,8,8,0,0,1-1,.72,10.22,10.22,0,0,1-2.07,1.35,9.35,9.35,0,0,0-2.16,1.53,9.56,9.56,0,0,0-1,.81c-.36.27-.72.63-1.08.9a5.71,5.71,0,0,0-1.08.9,5.78,5.78,0,0,1-1.17.9,12.63,12.63,0,0,0-1.62,1.08c-.45.36-1,.81-1.53,1.26s-1.26,1.08-1.8,1.62l-1.62,1.89c-.45.63-.9,1.17-1.35,1.8a14,14,0,0,1-1.44,1.8c-.27.27-.54.63-.81.9l-.9.9a9.33,9.33,0,0,0-1.71,2.88c-.63,1.35-1.08,2.34-1.44,3.06v.63a5.15,5.15,0,0,1,0,1.71c-.09.9-.18,1.53-.18,2a3.65,3.65,0,0,0,.36,1.71,7.79,7.79,0,0,0,.63,1.53,15.9,15.9,0,0,0,3.69,5.31,31.87,31.87,0,0,0,5.13,4.05,6.8,6.8,0,0,1,1.26,1,6.8,6.8,0,0,0,1.26,1,10.74,10.74,0,0,0,1.44.72l1.35.81a4.85,4.85,0,0,0,1.17.63,9.56,9.56,0,0,1,1,.81,2,2,0,0,0,.45.36.48.48,0,0,0,.36.27,2,2,0,0,0,.72.45,1.61,1.61,0,0,1,.63.45c1.17,1,2.43,2.16,3.87,3.51a19.88,19.88,0,0,1,3.24,4,27,27,0,0,1,1.44,3.24,32,32,0,0,1,.81,3.51,1.58,1.58,0,0,0,.09.54.76.76,0,0,0,.18.54c.09.27.54.45,1.26.54a6.44,6.44,0,0,1,1.53.09c.27.09.54.09.72.18s.36.09.63.09a7.48,7.48,0,0,0,1.17-.18,7.05,7.05,0,0,0,1.26-.45,9.56,9.56,0,0,0,1-.81,1.45,1.45,0,0,0,.45-1,7.42,7.42,0,0,0-1-3.51,20.21,20.21,0,0,1-1.71-3.42,10.08,10.08,0,0,0-1.26-2.61c-.54-.63-1.08-1.35-1.71-2.25s-1.08-1.62-1.53-2.43a10.3,10.3,0,0,0-2-2,2.16,2.16,0,0,0-1.08-.63,2.16,2.16,0,0,1-1.08-.63,9.85,9.85,0,0,1-.9-1c-.36-.27-.72-.63-1.08-.9a9.64,9.64,0,0,0-2-1.35,24.1,24.1,0,0,1-2.16-1.08,2.08,2.08,0,0,1-.63-.45,5.33,5.33,0,0,0-.54-.36,6.71,6.71,0,0,1-1.08-.63c-.45-.18-.81-.36-1.17-.54a5,5,0,0,1-.72-.36,15.47,15.47,0,0,1-2.88-2.07c-1-.81-1.89-1.53-2.7-2.25l-.54-.54a3.43,3.43,0,0,1-.54-.45,3.65,3.65,0,0,1-.45-.81l-.54-.81a9.84,9.84,0,0,1-.72-1.35,3.61,3.61,0,0,1-.27-1.35,3.1,3.1,0,0,1,.45-1.8,7.85,7.85,0,0,0,.81-1.53c.09-.27.27-.63.36-.9l.27-.81c.18-.27.36-.63.63-1a5.46,5.46,0,0,0,.63-.9c.27-.54.54-1.08.81-1.53a4.31,4.31,0,0,1,1-1.35l2.34-1.8,2.16-1.89.9-.9.81-.81a4.9,4.9,0,0,1,1.62-1,5.91,5.91,0,0,0,1.53-1.08c.72-.63,1.44-1.35,2.07-2a23.16,23.16,0,0,1,2.16-1.89,10.6,10.6,0,0,1,1.71-1c.63-.27,1.17-.54,1.71-.81.81-.45,1.62-1.08,2.52-1.71s1.8-1.17,2.61-1.71a7.88,7.88,0,0,0,1.08-.63,11.73,11.73,0,0,0,1.35-.9,13.84,13.84,0,0,0,1.17-1.08,1.9,1.9,0,0,0,.45-1,.93.93,0,0,0-.36-.72A5.39,5.39,0,0,1,437.89,266.38Zm-77.13,7.74c-.09-.18-.36-.27-.72-.27a4,4,0,0,0-1.71.54l-2.16,1.08c-.72.45-1.35.81-2,1.17a3.35,3.35,0,0,1-1.35.54,17.74,17.74,0,0,1-4,1.35,17.18,17.18,0,0,1-4.32.63A23.72,23.72,0,0,1,342,279a23.72,23.72,0,0,0-2.52-.18.88.88,0,0,0-.9.72,7.06,7.06,0,0,0-.18,1.26v3a2.63,2.63,0,0,0,.18.81q.14.54.54.54a1.14,1.14,0,0,0,.54-.09,1.14,1.14,0,0,1,.54-.09,3.06,3.06,0,0,1,.9.09,3.06,3.06,0,0,0,.9.09,7.5,7.5,0,0,0,2-.27,13.43,13.43,0,0,1,1.89-.18,6.81,6.81,0,0,1,1.35.09,5.31,5.31,0,0,0,1.26.18,8.91,8.91,0,0,0,3.78-.81c1.17-.45,2.25-1,3.42-1.44.36-.09.72-.18,1.17-.27l1.08-.27a6.55,6.55,0,0,0,1.62-.81,8.21,8.21,0,0,0,1.44-.9,5.34,5.34,0,0,1,.72-.36,8.77,8.77,0,0,0,1-.45l.81-.54a.65.65,0,0,0,.36-.54,3.11,3.11,0,0,0-1.17-2.34A12.72,12.72,0,0,1,360.76,274.12Zm-3.42,49.14-2.16-1.35c-.72-.45-1.26-.72-1.71-1a5.51,5.51,0,0,0-1.08-.45,2,2,0,0,1-1.08-.45q-2.56-1.49-5.4-3.24a21.82,21.82,0,0,0-5.76-2.25,6.2,6.2,0,0,1-.72-.27c-.27-.09-.54-.27-.81-.36s-.72-.27-1.08-.36-.72-.27-1.08-.36a3.61,3.61,0,0,1-1.44-.72,1.36,1.36,0,0,1-.81-1.26,1.58,1.58,0,0,1,.09-.54c.09-.18.09-.36.18-.45v-.81a18.07,18.07,0,0,0-.09-2.25,17.53,17.53,0,0,1-.18-2.25,1.14,1.14,0,0,1,.09-.54.67.67,0,0,0,.09-.45,6.81,6.81,0,0,0-.09-1.35,4.56,4.56,0,0,1-.18-1.17,1.33,1.33,0,0,1,.09-.63,1.76,1.76,0,0,1,.09-.63,6.72,6.72,0,0,1,.09-1c.09-.63.09-1.26.18-2s.09-1.26.18-1.89v-1.08a2.49,2.49,0,0,0-.09-.81,1.7,1.7,0,0,1-.18-.72,2.49,2.49,0,0,1,.09-.81,2.49,2.49,0,0,0,.09-.81,6.81,6.81,0,0,0-.09-1.35,4.56,4.56,0,0,1-.18-1.17,17.48,17.48,0,0,1,.18-2.16,15.25,15.25,0,0,0,.09-2.07,5.31,5.31,0,0,0-.18-1.26,5.31,5.31,0,0,1-.18-1.26v-1.89a12,12,0,0,1,.27-2.52,12,12,0,0,0,.27-2.52,4.75,4.75,0,0,0-.09-1.17c-.09-.36-.09-.72-.18-1.17a47.58,47.58,0,0,1-.54-7.2,1.74,1.74,0,0,1,.27-.9,3.24,3.24,0,0,0,.18-1v-2a1.58,1.58,0,0,0-.54-1.35,3.32,3.32,0,0,0-1.26-.63,10,10,0,0,0-1.71-.18h-1.53c-1,0-1.53.09-1.71.27s-.36.81-.36,1.71a2.49,2.49,0,0,0,.09.81v.81a2.63,2.63,0,0,1-.18.81,2.63,2.63,0,0,0-.18.81,13.29,13.29,0,0,0,.09,1.89,13.29,13.29,0,0,1,.09,1.89,23.58,23.58,0,0,1-.09,2.52c-.09.9-.09,1.8-.09,2.61v18.54a22.07,22.07,0,0,1-.18,2.43,11.17,11.17,0,0,0-.27,2.43,2.49,2.49,0,0,0,.27,1.17,4.56,4.56,0,0,1,.18,1.17v.9a4,4,0,0,0-.09,1,4.56,4.56,0,0,0,.18,1.17,6.08,6.08,0,0,1,.18,1.26,6.85,6.85,0,0,1-.27,1.89,7.5,7.5,0,0,0-.27,2,2,2,0,0,0,.09.72,2,2,0,0,1,.09.72v.54a.76.76,0,0,1-.54.18,9.07,9.07,0,0,1-2.25-.27,10.38,10.38,0,0,0-2.34-.27c-1,0-1.89,0-2.79-.09H316.3c-.09-.09-.27-.09-.54-.09a19.07,19.07,0,0,0-4,.45,33,33,0,0,0-4,1.17,5.94,5.94,0,0,1-1,.36,8,8,0,0,0-.9.45c-.45.27-.9.72-1.53,1.17s-1.08,1-1.44,1.26a5.49,5.49,0,0,0-1.08,1.44,14.29,14.29,0,0,0-.63,1.8,15.51,15.51,0,0,0-.63,1.89,7.5,7.5,0,0,0-.27,2,6.24,6.24,0,0,0,.27,1.8c.18.63.36,1.17.54,1.71a9.12,9.12,0,0,0,2.43,3.6,12.22,12.22,0,0,0,3.51,2.43,13.84,13.84,0,0,0,4.23,1.44,24.67,24.67,0,0,0,4.32.36H317a12.33,12.33,0,0,0,1.44-.18l1.89-.54c.63-.27,1.26-.45,1.89-.72s1-.45,1.26-.63.54-.27.81-.36l.9-.27a14.28,14.28,0,0,0,7.56-8.91,1.66,1.66,0,0,1,1.8-1.08,6.39,6.39,0,0,1,2.52.63c1,.45,2.07,1,3.15,1.53s2.16,1.17,3.15,1.8a14.22,14.22,0,0,0,2.52,1.35,13.73,13.73,0,0,1,2.61,1.26c.45.27,1.08.72,1.8,1.26a22.48,22.48,0,0,0,2.16,1.62,20,20,0,0,0,2.07,1.35,2.85,2.85,0,0,0,1.62.63,2.15,2.15,0,0,0,1.53-.9,9.05,9.05,0,0,0,1.08-1.26,1.56,1.56,0,0,1,.54-1,1.78,1.78,0,0,0,.54-1.26,3.1,3.1,0,0,0-.72-1.62A14.69,14.69,0,0,0,357.34,323.26Zm-31.68-2.79a11.89,11.89,0,0,1-2,2.34,16.74,16.74,0,0,1-2.52,1.89,10.26,10.26,0,0,1-2.34,1.08c-.45.09-.9.18-1.26.27a7,7,0,0,1-1.35.18h-.9a5.94,5.94,0,0,1-1.26-.09,6.81,6.81,0,0,1-1.35-.09,5.07,5.07,0,0,1-.9-.18,12.75,12.75,0,0,1-1.62-.72,6.91,6.91,0,0,1-1.62-.9,4.24,4.24,0,0,1-1.17-1.35,3.45,3.45,0,0,1-.45-1.71,3.9,3.9,0,0,1,1.62-3.33,18.72,18.72,0,0,1,3.42-2,4.42,4.42,0,0,1,1.17-.27l2-.27c.72-.09,1.44-.09,2.07-.18a8.9,8.9,0,0,1,1.35-.09,13.87,13.87,0,0,1,1.71.18l1.89.54a7.42,7.42,0,0,0,1.71.54,4.52,4.52,0,0,0,1.26.27,2.58,2.58,0,0,1,1.08.18,2.14,2.14,0,0,1,.27,1.35A4.09,4.09,0,0,1,325.66,320.47Z"/></g></g></g></svg>